<?xml version="1.0" encoding="utf-8"?>
<!-- Generator: Adobe Illustrator 22.0.0, SVG Export Plug-In . SVG Version: 6.00 Build 0)  -->
<svg version="1.1" id="Layer_1" xmlns="http://www.w3.org/2000/svg" xmlns:xlink="http://www.w3.org/1999/xlink" x="0px" y="0px"
	 viewBox="0 0 1500 1500" style="enable-background:new 0 0 1500 1500;" xml:space="preserve">
<style type="text/css">
	.st0{fill:#657285;}
	.st1{fill:#B8C1C9;}
	.st2{fill:#EAEAEA;}
	.st3{opacity:0.6;}
	.st4{fill:#D5D6DA;}
	.st5{fill:#FFFFFF;}
	.st6{opacity:0.5;}
	.st7{fill:#00A3FE;}
	.st8{fill:#016EB9;}
	.st9{fill:#131F2D;}
	.st10{fill:#5C305D;}
	.st11{opacity:0.4;}
	.st12{fill:#FF7955;}
	.st13{fill:#364154;}
	.st14{fill:#FFB27D;}
</style>
<g>
	<path class="st0" d="M1315.3,609.7c-39.4,53.7-105.7,85.6-174.9,85.6c-112.5,0-212.5-88.3-212.5-204c0-95.4,50.7-163.8,120.5-195.2
		c19.2-8.6,39.5-14.4,60.2-17.3c10.5-1.5,21.2-2.2,31.8-2.2c27.2,0,54.1,5.5,79.3,16.2C1294,324.6,1348.2,399.2,1352,486
		C1354.1,534.1,1339.9,576.2,1315.3,609.7z"/>
	<path class="st1" d="M1023.2,504.4c0,0,8,18.9,0,29.3c-7.9,10.4-8.6,30,7.2,43c15.9,13,22.7,14.1,19.1,27
		c-3.6,13-7.4,28.8-1.4,35.5c5.9,6.7,8.4,22.5,21.6,23.7c13.3,1.2-1.1-10.8,7.6-22c8.7-11.1,42.2-13.3,38.9-35.3
		c-3.2-22,27.6-23.9,31.9-38.4c4.3-14.5-14-23.3-29.5-22.2c-15.5,1.1-6-23.6-22.7-27.2c-16.8-3.6-24.6-17.5-34.4-15.8
		c-9.7,1.7-20.5-12.5-31.7-8.1C1018.8,498.3,1023.2,504.4,1023.2,504.4z"/>
	<path class="st1" d="M995,353.2c0,0-11.5,9.3-14.7,24.1c-3.2,14.8-19.5,24.1-22,44.5c-2.5,20.4,8.9,20.9,4.9,32.1
		c-4.1,11.1,1,16.7,13.3,22.2c12.4,5.6,13.4,14.1,20.7,16.9c7.3,2.8,5.4,10.3,7.8,11.1c2.4,0.8,1.4-5.7,3.9-14.2
		c2.5-8.5,4.7-12-4.5-11.7c-9.2,0.4-6.3-7.2-2.7-12c3.6-4.8-5-5.6-7.9-4.8c-2.9,0.7-2.1,14.5-8.1,8c-6-6.5-8.8-13.9-4-22.4
		c4.9-8.5,15.3-1.5,22.7-11.7c7.4-10.2,17.8-6.1,18.4,2c0.6,8.2,15.3,8.3,17.8-2.4c2.5-10.7,1.5-29.5,16.6-32.5
		c15.2-3.1,44.9-18.6,26-25c-18.9-6.4-11.4-19.7-21.1-18.9c-9.7,0.8-5.9,15.8-16.8,11.4c-10.8-4.5-18.7-16.4-3.5-19.7
		c15.2-3.3,21.4-20.6,9.7-19.5c-11.6,1.1-13.5-10.6-20.5-9.2c-7.1,1.4-14.3,18.9-21.6,23.3C1002.2,349.2,995,353.2,995,353.2z"/>
	<path class="st1" d="M1092.6,318.9c0,0,15-4.3,21.5,0c6.5,4.3,16.6,16.3,8.1,20.8c-8.5,4.5-17.3,5.9-13.2,14.3
		c4.1,8.3-11.9,11.1-16.4,0c-4.5-11.1-4.5-15.2-9.2-20.4C1078.7,328.3,1080.7,317.2,1092.6,318.9z"/>
	<path class="st1" d="M1315.3,609.7c-61.9-16.7-10.5-42.9-32.3-73c-12.4-17.2,9.6-37.8-4.4-40.7c-8.2-1.6-27,19.8-37.8,0
		c-10.8-19.8-30.2-19.9-35.8-7.9c-5.6,12-29.4,20.3-45,11.6c-15.6-8.7-6.5-20.3-20-29.4c-13.5-9.1-14.5-23.6,0-34.7
		c14.5-11.2,7.8-27.3,29.6-22.3c21.7,5,17.5-46.5,17.5-46.5c-0.3-9,8.1-10.6,3.3-18.9c-4.8-8.4-18.4-1.6-25.7-20.2
		c-7.2-18.6,11.5-29.8,26.6-28c4.4,0.5,15.1-2.6,28.3-6.8c74.5,31.7,128.7,106.2,132.4,193.1
		C1354.1,534.1,1339.9,576.2,1315.3,609.7z"/>
	<path class="st1" d="M1027.6,461.8c0,0,12.5-7.2,19.1-1.5c6.7,5.7,9.5,9.5,19.3,7.3c9.8-2.1,16.5,1.9,10.2,4.9
		c-6.3,3-21.2,8.1-28,1.9C1041.3,468.3,1021.7,464.3,1027.6,461.8z"/>
	<path class="st1" d="M1077.9,484.9c0,0,8.9,1.6,10.9-2.1c2-3.7-2.1-0.2-5.5-2.1C1079.9,478.7,1073.5,480.7,1077.9,484.9z"/>
	<path class="st2" d="M758.7,1240c385.2,0,697.5-32.3,697.5-72.1c0-39.8-312.3-72.1-697.5-72.1c-385.2,0-697.5,32.3-697.5,72.1
		C61.2,1207.7,373.5,1240,758.7,1240z"/>
	<g class="st3">
		<path class="st4" d="M1106.1,831.8c79.8-83.8,191.8-182.8,240.5-138.4c58.7,53.5-83.9,120.8-191.1,189.7
			C1117,907.9,1055.2,885.3,1106.1,831.8z"/>
	</g>
	<path class="st1" d="M1007.5,866.7c0,0,407.3-162,461-32.5c53.8,129.5-304.6,38.6-421.2,90.1L1007.5,866.7z"/>
	<path class="st5" d="M1029.5,899.1c79.9-37.1,178.4-48.8,247-52.1c74.4-3.6,130.5,1.7,131,1.7l0.3-3.6c-0.5-0.1-56.9-5.3-131.5-1.7
		c-68.9,3.3-167.9,15.2-248.3,52.4L1029.5,899.1z"/>
	<path class="st4" d="M1287.4,1133.4c-51.1-23.5-92.9,50.6-134-0.1c-34.8-42.9-35.5-49.6-59.2-48.2c-8.1,0.5-16.1,2.3-23.8,5.1
		c-9.2,3.4-24.7,6.8-39.3-0.6c-89-45.4-111.1-246.7,18.4-250.6c9.4-0.3,19.4,4.4,30,10.1c57.9,30.9,56.6,67.6,142.5,35.6
		c85.9-32,76.9,100.2,114,123.3c37.1,23.1,75.5,35.6,75.5,94S1338.5,1156.9,1287.4,1133.4z"/>
	<g class="st6">
		<path class="st5" d="M1012.2,945.3l0.1-3.8c1.6,0.1,165,8.9,397.6,176.2l-2.1,3.1C1176.1,954.1,1013.8,945.4,1012.2,945.3z"/>
		<path class="st5" d="M1219.4,962.1c-10.2-50.7,0.3-76.8,0.8-77.9l3.4,1.5c-0.1,0.3-10.5,26.3-0.6,75.7L1219.4,962.1z"/>
		<path class="st5" d="M1201.1,998.9c2.5-21.8,19.1-43.3,48.1-62.2c13.6-8.8,28.1-16.3,43.1-22.2l1.2,3.6
			c-0.8,0.3-83,31.3-88.8,81.3L1201.1,998.9z"/>
		<path class="st5" d="M1265.1,1039.1c-1.4-5.8-1.9-9.3-1.9-9.5l3.7-0.5c0.1,0.7,10.8,73.9,72.5,117.6l-2.1,3.1
			C1287.5,1114.6,1270.2,1060.7,1265.1,1039.1z"/>
		<path class="st5" d="M1244.3,1132c-2.5-26.2,4.9-45,11.5-56.1c7.2-12.1,14.9-17.9,15.2-18.2l2.1,3.1c-0.3,0.2-29.8,22.8-25.3,70.8
			L1244.3,1132z"/>
	</g>
	<path class="st2" d="M322.4,288.4c0,0,12.9-25.5,45.5-22.3c32.6,3.2,28.7,28.8,44.2,26.4c15.5-2.4,37.3,0,41.9,16
		c4.7,16,25.6,7.2,26.4,20.8c0.8,13.6-24.1,23.2-52.8,11.2c-28.7-12-42.7,9.3-83.1,5.4c-40.4-3.9-45.4-8.6-69.3-6.3
		c-23.9,2.4-23.3-14.4-12.5-25.6C273.7,302.8,317.7,303.8,322.4,288.4z"/>
	<g class="st3">
		<path class="st2" d="M485.9,372.3c0,0,6.7-13.3,23.7-11.6c17,1.7,15,15,23,13.7c8.1-1.3,19.4,0,21.8,8.3
			c2.5,8.3,13.3,3.8,13.8,10.8c0.4,7-12.5,12-27.5,5.8c-15-6.2-22.2,4.8-43.3,2.8c-21-2-23.6-4.5-36.1-3.3
			c-12.4,1.2-12.2-7.5-6.5-13.3C460.7,379.8,483.5,380.4,485.9,372.3z"/>
	</g>
	<path class="st4" d="M289.4,457.9c-7.5,8.9-12.5,9.2-15.9,6.2c-3.4-3-4-8.1,3.5-17c13.6-16.3,26.4-18.8,26.4-18.8
		S303.2,441.3,289.4,457.9z"/>
	<path class="st4" d="M313.1,530.3c-4.2,11-8.9,12.8-13.1,11.1c-4.2-1.7-6.3-6.4-2.1-17.3c7.7-20,19-26.5,19-26.5
		S320.9,510,313.1,530.3z"/>
	<path class="st4" d="M371.8,719.8l-2.1,0.5c-0.1-0.3-8.4-33.9-35.1-77.9c-24.6-40.6-70.4-98.7-148.4-144.9l1.1-1.9
		c78.4,46.4,124.4,104.8,149.2,145.7C363.3,685.6,371.8,719.5,371.8,719.8z"/>
	<path class="st4" d="M270.2,559.4l-2.1-0.5c18.6-78.8-31.9-148.5-32.4-149.2l1.7-1.3C237.9,409,289,479.6,270.2,559.4z"/>
	<path class="st4" d="M227.8,536.1c-13,4.4-27,5.2-40.4,2.2l0.6-2.1c0.2,0.1,25.1,6.6,48.3-6.2l1,2
		C234.3,533.6,231.1,535,227.8,536.1L227.8,536.1z"/>
	<path class="st4" d="M352.4,673.5c-43.8,10-85.1,0.9-122.6-26.8c-0.9-0.7-1.9-1.4-2.8-2c0.1,0,0.2,0,0.2,0v-2.2
		c0.6,0,1.2,0.4,3.9,2.4c37,27.5,77.7,36.3,120.9,26.5L352.4,673.5z"/>
	<path class="st4" d="M285.1,671.9L283,672c-2-30.2-33.5-64.5-33.9-64.9l1.6-1.5c6,6.7,11.5,13.8,16.4,21.3
		C274.8,638.4,284.1,655.6,285.1,671.9z"/>
	<path class="st4" d="M180.9,486.3c14.2,6.2,17,11.5,15.3,15.8c-1.8,4.3-7.4,5.8-21.7-0.4c-25.9-11.4-35.3-24.5-35.3-24.5
		S154.6,474.8,180.9,486.3z"/>
	<path class="st4" d="M190.6,529.5c15.4,1.5,19.6,5.7,19.2,10.3c-0.4,4.6-5.4,7.9-20.8,6.4c-28.1-2.8-40.8-12.4-40.8-12.4
		S162.1,526.7,190.6,529.5z"/>
	<path class="st4" d="M253,598.2c8.3,8.1,8.2,13.3,5.1,16.6c-3.1,3.4-8.1,3.6-16.4-4.5c-15.1-14.9-16.8-28.1-16.8-28.1
		S237.6,583.1,253,598.2z"/>
	<path class="st4" d="M237.6,495.1c6.1,10,4.8,14.9,1,17.4c-3.8,2.5-8.7,1.5-14.8-8.5c-11.1-18.2-9.6-31.4-9.6-31.4
		S226.3,476.6,237.6,495.1z"/>
	<path class="st4" d="M308.6,651.1c3.1,11.4,0.6,15.7-3.8,17c-4.3,1.3-8.8-1.1-11.9-12.4c-5.7-20.7-0.6-32.9-0.6-32.9
		S302.8,630.1,308.6,651.1z"/>
	<path class="st4" d="M238.4,641.5c9.8,6.1,10.8,11.2,8.5,15.1c-2.3,3.9-7.2,5.3-16.9-0.8c-17.9-11.2-22.2-23.7-22.2-23.7
		S220.3,630.1,238.4,641.5z"/>
	<path class="st4" d="M238.9,398.2c8.3,13.4,7.7,19.4,3.9,21.9c-3.8,2.5-9.3,0.5-17.6-12.9c-15.1-24.4-15.6-40.7-15.6-40.7
		S223.5,373.4,238.9,398.2z"/>
	<path class="st4" d="M538.6,1011.3c0,0-221.1-374.4-317.7-308.9c-96.6,65.5,202.2,217.1,263.2,328.2L538.6,1011.3z"/>
	<path class="st2" d="M435.7,944.5c0,0-254.4-277.3-341.7-198.4C6.7,825.1,313.7,890.3,384.7,973.6L435.7,944.5z"/>
	<path class="st5" d="M407.3,961.1c-48-58.5-119.4-104.5-170.7-132.9c-55.7-30.7-100.6-47.8-101-48l1-2.8
		c0.5,0.2,45.5,17.3,101.4,48.2c51.6,28.5,123.3,74.7,171.6,133.5L407.3,961.1z"/>
	<path class="st1" d="M131.7,1052.2c57.3,11.4,49.6,100.3,114.2,82.5c64.6-17.9,59.2-22.1,91,6.3c0,0,12.7,27.8,38.7,31.9
		C477.9,1188.9,614.1,1031,506,947.9c-7.8-6-19-8.1-31.4-9.8c-67.4-9.3-87.6,22.8-142.2-57.3c-54.6-80.1-124,38-169.1,34.8
		c-45.1-3.1-85.1-16.1-119.1,33.7C10.1,999,74.4,1040.8,131.7,1052.2z"/>
	<path class="st5" d="M475.8,1061.3l2.1-3.3c-1.4-0.9-145.8-94-441.5-94.7v3.9C331,967.9,474.4,1060.4,475.8,1061.3z"/>
	<path class="st5" d="M289.4,948c38.2-36.9,44.5-65.7,44.8-66.9l-3.8-0.8c-0.1,0.3-6.4,28.9-43.6,64.8L289.4,948z"/>
	<path class="st5" d="M283.6,990.7c10.5-20.1,8.9-48.6-4.7-82.6c-6.5-15.9-14.5-31.2-23.8-45.5l-3.1,2.3
		c0.5,0.8,52.5,77.8,28.3,123.9L283.6,990.7z"/>
	<path class="st5" d="M205.6,985.6c4.6-4.1,7-6.7,7.1-6.9L210,976c-0.5,0.6-52.3,56.3-130.4,55.6v3.9
		C142.5,1036.1,188.6,1000.8,205.6,985.6z"/>
	<path class="st5" d="M169.2,1077.5c17.4-20.8,22-41.3,22.9-54.9c0.9-14.7-2.3-24.5-2.4-24.9l-3.6,1.3c0.1,0.4,12.1,37.8-19.8,75.9
		L169.2,1077.5z"/>
	<path class="st7" d="M897.2,1062v-121H659.6v121c0,31.5-20.4,56.9-45.5,56.9h-9.6v15.6h347.7v-15.6h-9.6
		C917.6,1118.9,897.2,1093.4,897.2,1062z"/>
	<path class="st8" d="M950.3,1134.6H606.5c-2,0-3.9-0.8-5.4-2.3c-1.4-1.5-2.2-3.5-2.2-5.5l0,0c0-2.1,0.8-4.1,2.2-5.5
		c1.4-1.5,3.4-2.3,5.4-2.3h343.8c2,0,3.9,0.8,5.4,2.3c1.4,1.5,2.2,3.5,2.2,5.5l0,0c0,2.1-0.8,4.1-2.2,5.5
		C954.2,1133.7,952.3,1134.6,950.3,1134.6L950.3,1134.6z"/>
	<path class="st8" d="M1183.1,1015.3l-803.4-9.5c-8.3-0.1-16.2-3.5-22-9.6c-5.8-6-9.1-14.2-9.1-22.7V469.6c0-8.5,3.2-16.6,9-22.6
		c5.8-6,13.6-9.5,21.9-9.6l793.1-12.5c8.3-0.1,16.3,3.1,22.3,9c6,5.9,9.4,14,9.6,22.6l10.4,525.9c0.1,4.3-0.7,8.6-2.2,12.6
		c-1.6,4-3.9,7.7-6.9,10.7c-3,3.1-6.5,5.5-10.4,7.1C1191.5,1014.5,1187.3,1015.3,1183.1,1015.3L1183.1,1015.3z"/>
	<path class="st2" d="M1155.9,475.6H396.6c-9.3,0-16.8,7.7-16.8,17.3V898c0,9.6,7.5,17.3,16.8,17.3h759.3c9.3,0,16.8-7.7,16.8-17.3
		V492.9C1172.7,483.4,1165.2,475.6,1155.9,475.6z"/>
	<path class="st7" d="M859.1,338.2l10-0.3c0.9,0,1.8-0.2,2.7-0.6c0.8-0.4,1.6-0.9,2.2-1.6c0.6-0.7,1.1-1.5,1.4-2.3
		c0.3-0.9,0.5-1.8,0.5-2.7l-0.3-12.5c-0.1-1.9-0.8-3.7-2.1-5c-1.4-1.3-3.1-2-5-1.9l-7.1,0.2c-1.5,0-2.9-0.4-4.2-1.3
		c-1.2-0.9-2.1-2.1-2.6-3.6c-0.2-0.6-0.4-1.1-0.6-1.7c-0.5-1.3-0.5-2.8-0.2-4.2c0.3-1.4,1.1-2.6,2.1-3.6l4.8-4.3
		c1.4-1.2,2.2-3,2.4-4.9c0.1-1.9-0.5-3.7-1.7-5.2l-8-9.4c-0.6-0.7-1.3-1.3-2.1-1.7c-0.8-0.4-1.7-0.7-2.6-0.7
		c-0.9-0.1-1.8,0.1-2.7,0.4c-0.8,0.3-1.6,0.8-2.3,1.4l-4.9,4.3c-1,0.9-2.3,1.5-3.7,1.7c-1.4,0.2-2.8-0.1-4-0.8
		c-0.5-0.3-1-0.5-1.6-0.8c-1.3-0.7-2.4-1.8-3.1-3.1c-0.7-1.4-0.9-2.9-0.7-4.4l1.1-7.2c0.3-1.9-0.1-3.8-1.2-5.3
		c-1.1-1.5-2.7-2.6-4.5-2.9l-12-2c-1.8-0.3-3.7,0.2-5.1,1.3c-1.5,1.1-2.5,2.8-2.8,4.6l-1.6,10.1c-0.2,1.3-0.8,2.6-1.7,3.6
		c-0.9,1-2,1.7-3.3,2.1c-2.2,0.6-4.3,1.5-6.4,2.4c-1.4,0.6-2.9,0.8-4.3,0.5c-1.5-0.3-2.8-1.1-3.8-2.3l-5.2-6.1
		c-0.6-0.7-1.3-1.3-2.1-1.7c-0.8-0.4-1.7-0.7-2.6-0.7c-0.9-0.1-1.8,0.1-2.7,0.4c-0.8,0.3-1.6,0.8-2.3,1.4l-9.1,8.2
		c-1.4,1.2-2.2,3-2.3,4.9c-0.1,1.9,0.5,3.7,1.7,5.2l6.9,8.2c0.9,1,1.5,2.3,1.7,3.6c0.2,1.3,0,2.7-0.5,4c-0.3,0.6-0.5,1.2-0.7,1.8
		c-0.5,1.3-1.4,2.4-2.5,3.2c-1.1,0.8-2.4,1.2-3.8,1.3l-11.3,0.3c-1.8,0.1-3.6,0.8-4.8,2.2c-1.3,1.4-1.9,3.2-1.9,5.1l0.3,12.5
		c0.1,1.9,0.8,3.7,2.1,5c1.3,1.3,3.1,2,4.9,1.9l9.7-0.3c1.5,0,2.9,0.4,4.1,1.2c1.2,0.8,2.1,2,2.6,3.4v0.1c0.5,1.3,0.6,2.8,0.2,4.2
		c-0.3,1.4-1.1,2.6-2.1,3.6l-6.8,6.2c-0.7,0.6-1.2,1.4-1.6,2.2c-0.4,0.8-0.7,1.7-0.7,2.7c-0.1,0.9,0.1,1.9,0.3,2.8
		c0.3,0.9,0.8,1.7,1.4,2.4l8,9.4c0.6,0.7,1.3,1.3,2.1,1.7c0.8,0.4,1.7,0.7,2.6,0.7c0.9,0.1,1.8-0.1,2.7-0.4c0.9-0.3,1.7-0.8,2.4-1.4
		l6.8-6.2c1-0.9,2.3-1.5,3.7-1.7c1.4-0.2,2.8,0.1,4,0.8l0.1,0.1c1.3,0.7,2.3,1.8,3,3.1c0.7,1.3,0.9,2.8,0.7,4.3l-1.5,9.8
		c-0.1,0.9-0.1,1.9,0.1,2.8c0.2,0.9,0.6,1.8,1.1,2.5c0.5,0.8,1.2,1.4,2,1.9c0.8,0.5,1.6,0.8,2.5,1l12,2c1.8,0.3,3.7-0.2,5.2-1.3
		c1.5-1.1,2.5-2.8,2.8-4.6l1.8-11.4c0.2-1.4,0.8-2.6,1.7-3.7c0.9-1,2.1-1.8,3.4-2.1c0.6-0.2,1.2-0.3,1.8-0.5c1.3-0.4,2.6-0.4,3.9,0
		c1.3,0.4,2.4,1.1,3.3,2.2l7,8.2c0.6,0.7,1.3,1.3,2.1,1.7c0.8,0.4,1.7,0.7,2.6,0.7c0.9,0.1,1.8-0.1,2.7-0.4c0.8-0.3,1.6-0.8,2.3-1.4
		l9.1-8.2c0.7-0.6,1.2-1.4,1.6-2.2c0.4-0.8,0.6-1.7,0.7-2.7c0.1-0.9-0.1-1.9-0.4-2.8c-0.3-0.9-0.7-1.7-1.3-2.4l-5.2-6.1
		c-1-1.2-1.6-2.6-1.7-4.1c-0.1-1.5,0.2-3,1-4.3c1.2-2,2.3-4.1,3.2-6.2c0.5-1.3,1.4-2.3,2.5-3.1C856.4,338.6,857.7,338.2,859.1,338.2
		L859.1,338.2z M826.1,344c-10.6,9.6-32.3,6.8-41.6-4.1c-9.3-10.9-5.6-29.4,5-38.8c10.6-9.5,28.7-4.4,38,6.5
		C836.8,318.5,836.7,334.5,826.1,344L826.1,344z"/>
	<path class="st9" d="M807.4,402c-0.4,0-0.8,0-1.1-0.1l-12-2c-0.9-0.1-1.8-0.5-2.6-1c-0.8-0.5-1.5-1.2-2-1.9c-0.6-0.8-1-1.7-1.2-2.6
		c-0.2-0.9-0.2-1.9-0.1-2.9l1.5-9.8c0.2-1.4,0-2.9-0.6-4.2c-0.6-1.3-1.6-2.4-2.9-3h-0.1c-1.2-0.6-2.5-0.9-3.9-0.7
		c-1.4,0.2-2.6,0.8-3.6,1.7l-6.8,6.2c-0.7,0.6-1.5,1.1-2.4,1.4c-0.9,0.3-1.8,0.4-2.8,0.4c-0.9-0.1-1.9-0.3-2.7-0.7
		c-0.8-0.4-1.6-1-2.2-1.7l-8-9.4c-0.6-0.7-1.1-1.6-1.4-2.5c-0.3-0.9-0.4-1.9-0.4-2.8c0.1-1,0.3-1.9,0.7-2.8c0.4-0.9,1-1.6,1.7-2.3
		l6.8-6.2c1-0.9,1.7-2.1,2.1-3.5c0.3-1.4,0.3-2.8-0.2-4.1v-0.1c-0.5-1.4-1.4-2.5-2.5-3.3c-1.2-0.8-2.5-1.2-3.9-1.2l-9.7,0.3
		c-1.9,0-3.7-0.7-5.1-2c-1.4-1.3-2.2-3.2-2.2-5.1l-0.3-12.5c-0.1-1.9,0.7-3.8,2-5.2c1.3-1.4,3.1-2.2,5-2.3l11.3-0.3
		c1.3,0,2.6-0.4,3.6-1.2c1.1-0.8,1.9-1.8,2.4-3.1c0.2-0.6,0.5-1.2,0.7-1.8c0.5-1.2,0.7-2.5,0.5-3.8c-0.2-1.3-0.7-2.5-1.6-3.5l-7-8.2
		c-1.2-1.5-1.9-3.4-1.7-5.3c0.1-1.9,1-3.7,2.4-5l9.1-8.2c0.7-0.6,1.5-1.1,2.4-1.4c0.9-0.3,1.8-0.4,2.8-0.4c0.9,0.1,1.8,0.3,2.7,0.7
		c0.8,0.4,1.6,1,2.2,1.7l5.2,6.1c1,1.1,2.3,1.9,3.7,2.2c1.4,0.3,2.9,0.1,4.2-0.5c2.1-1,4.2-1.8,6.4-2.4c1.2-0.4,2.3-1.1,3.2-2.1
		c0.9-1,1.4-2.2,1.6-3.5l1.6-10.1c0.3-1.9,1.3-3.6,2.9-4.8c1.5-1.1,3.4-1.6,5.3-1.3l12,2c1.9,0.3,3.5,1.4,4.6,2.9
		c1.1,1.6,1.6,3.5,1.3,5.5l-1.1,7.2c-0.2,1.5,0,3,0.7,4.3c0.7,1.3,1.7,2.4,3,3c0.5,0.3,1.1,0.5,1.6,0.8c1.2,0.6,2.5,0.9,3.9,0.7
		c1.3-0.2,2.6-0.7,3.6-1.7l4.8-4.3c1.4-1.3,3.3-1.9,5.2-1.8c1.9,0.1,3.6,1,4.9,2.5l8,9.4c0.6,0.7,1.1,1.6,1.4,2.5
		c0.3,0.9,0.4,1.9,0.3,2.8c-0.1,1-0.3,1.9-0.7,2.8c-0.4,0.9-1,1.6-1.7,2.3l-4.8,4.3c-1,0.9-1.7,2.1-2.1,3.5
		c-0.3,1.3-0.3,2.8,0.2,4.1c0.2,0.6,0.4,1.1,0.6,1.7c0.5,1.4,1.3,2.6,2.5,3.5c1.2,0.9,2.6,1.3,4,1.2l7.1-0.2c1.9,0,3.7,0.7,5.1,2
		c1.4,1.3,2.1,3.2,2.2,5.1l0.3,12.5c0.1,1.9-0.7,3.8-2,5.2c-1.3,1.4-3.1,2.2-5,2.3l-10,0.3c-1.3,0-2.5,0.5-3.6,1.2
		c-1.1,0.7-1.9,1.8-2.4,3c-0.9,2.2-2,4.2-3.2,6.2c-0.8,1.3-1.1,2.7-1,4.2c0.1,1.5,0.7,2.9,1.6,4l5.2,6.1c0.6,0.7,1.1,1.6,1.4,2.5
		c0.3,0.9,0.4,1.9,0.4,2.8c-0.1,1-0.3,1.9-0.7,2.8c-0.4,0.9-1,1.6-1.7,2.3l-9.2,8.2c-0.7,0.6-1.5,1.1-2.4,1.4
		c-0.9,0.3-1.8,0.4-2.8,0.4c-0.9-0.1-1.8-0.3-2.7-0.7c-0.8-0.4-1.6-1-2.2-1.7l-7-8.2c-0.8-1-1.9-1.7-3.2-2.1c-1.2-0.4-2.5-0.4-3.8,0
		c-0.6,0.2-1.2,0.4-1.8,0.5c-1.3,0.3-2.4,1-3.3,2c-0.9,1-1.5,2.2-1.7,3.6l-1.8,11.4c-0.3,1.7-1.1,3.3-2.4,4.4
		C810.7,401.4,809.1,402,807.4,402L807.4,402z M783.2,373.2c1.1,0,2.3,0.3,3.3,0.8l0.1,0c1.3,0.7,2.4,1.8,3,3.2
		c0.7,1.4,0.9,2.9,0.7,4.4l-1.5,9.8c-0.3,1.8,0.1,3.6,1.2,5.1c1,1.5,2.6,2.5,4.3,2.8l12,2c1.7,0.3,3.6-0.1,5-1.2
		c1.5-1.1,2.4-2.7,2.7-4.5l1.8-11.4c0.2-1.4,0.8-2.7,1.7-3.8c0.9-1.1,2.1-1.8,3.5-2.2c0.6-0.2,1.2-0.3,1.9-0.5c1.3-0.4,2.7-0.4,4,0
		c1.3,0.4,2.5,1.2,3.4,2.2l7,8.2c0.6,0.7,1.3,1.2,2.1,1.6c0.8,0.4,1.6,0.6,2.5,0.7c0.9,0.1,1.8-0.1,2.6-0.3c0.8-0.3,1.6-0.7,2.3-1.3
		l9.1-8.2c1.3-1.2,2.1-2.9,2.3-4.7c0.1-1.8-0.5-3.6-1.6-5l-5.2-6.1c-1-1.2-1.6-2.7-1.7-4.3c-0.1-1.6,0.3-3.1,1.1-4.5
		c1.2-2,2.3-4,3.2-6.2c0.6-1.3,1.4-2.4,2.5-3.2c1.1-0.8,2.5-1.2,3.8-1.3l10-0.3c1.8-0.1,3.5-0.8,4.7-2.2c1.2-1.3,1.9-3.1,1.8-4.9
		l-0.3-12.5c-0.1-1.8-0.8-3.6-2.1-4.8c-1.3-1.3-3-1.9-4.8-1.9l-7.1,0.2c-1.5,0-3-0.4-4.3-1.3c-1.2-0.9-2.2-2.2-2.7-3.7
		c-0.2-0.6-0.4-1.1-0.6-1.7c-0.5-1.4-0.6-2.9-0.2-4.3c0.3-1.4,1.1-2.7,2.2-3.7l4.8-4.3c0.7-0.6,1.2-1.3,1.6-2.1
		c0.4-0.8,0.6-1.7,0.7-2.6c0.1-0.9-0.1-1.8-0.3-2.7c-0.3-0.9-0.7-1.7-1.3-2.3l-8-9.4c-1.2-1.4-2.8-2.2-4.6-2.3
		c-1.8-0.1-3.5,0.5-4.9,1.7l-4.8,4.3c-1.1,1-2.4,1.6-3.8,1.8c-1.4,0.2-2.9-0.1-4.1-0.8c-0.5-0.3-1-0.5-1.5-0.8
		c-1.4-0.7-2.5-1.8-3.2-3.2c-0.7-1.4-1-3-0.7-4.5l1.1-7.2c0.3-1.8-0.2-3.6-1.2-5.1c-1-1.5-2.6-2.5-4.3-2.8l-12-2
		c-1.7-0.3-3.6,0.1-5,1.2c-1.4,1.1-2.4,2.7-2.7,4.5l-1.6,10.1c-0.2,1.4-0.8,2.7-1.7,3.7c-0.9,1-2.1,1.8-3.4,2.2
		c-2.2,0.6-4.3,1.5-6.4,2.4c-1.4,0.7-3,0.8-4.5,0.5c-1.5-0.3-2.9-1.2-3.9-2.3l-5.2-6.1c-0.6-0.7-1.3-1.2-2.1-1.6
		c-0.8-0.4-1.6-0.6-2.5-0.7c-0.9-0.1-1.7,0.1-2.6,0.3c-0.8,0.3-1.6,0.7-2.3,1.3l-9.1,8.2c-1.3,1.2-2.1,2.9-2.3,4.7
		c-0.1,1.8,0.5,3.6,1.6,5l7,8.2c0.9,1,1.5,2.3,1.7,3.7c0.2,1.4,0.1,2.8-0.5,4.1c-0.2,0.6-0.5,1.2-0.7,1.8c-0.5,1.3-1.4,2.5-2.5,3.3
		c-1.2,0.8-2.5,1.3-3.9,1.3l-11.3,0.3c-0.9,0-1.7,0.2-2.5,0.6c-0.8,0.4-1.5,0.9-2.1,1.6c-0.6,0.7-1.1,1.4-1.4,2.3
		c-0.3,0.8-0.5,1.7-0.5,2.7l0.3,12.5c0.1,1.8,0.8,3.6,2.1,4.8c1.3,1.3,3,1.9,4.8,1.9l9.7-0.3c1.5,0,2.9,0.4,4.2,1.3
		c1.2,0.9,2.2,2.1,2.7,3.5v0.1c0.5,1.4,0.6,2.9,0.2,4.3c-0.3,1.4-1.1,2.7-2.2,3.7l-6.9,6.2c-0.7,0.6-1.2,1.3-1.6,2.1
		c-0.4,0.8-0.6,1.7-0.7,2.6c-0.1,0.9,0.1,1.8,0.3,2.7c0.3,0.9,0.7,1.6,1.3,2.3l8,9.4c0.6,0.7,1.3,1.2,2.1,1.6
		c0.8,0.4,1.7,0.6,2.5,0.7c0.9,0.1,1.7-0.1,2.6-0.4c0.8-0.3,1.6-0.7,2.3-1.3l6.8-6.2C779.7,373.9,781.4,373.2,783.2,373.2
		L783.2,373.2z"/>
	<g class="st3">
		<path class="st4" d="M1099.4,527.8H452.2c-9.3,0-16.8,7.7-16.8,17.2v113.1c0,9.5,7.5,17.2,16.8,17.2h647.3
			c9.3,0,16.8-7.7,16.8-17.2V545C1116.2,535.5,1108.7,527.8,1099.4,527.8z"/>
	</g>
	<g class="st3">
		<path class="st4" d="M1106,720.4H793.5c-0.6,0-1.3-0.1-1.9-0.4c-0.6-0.3-1.1-0.6-1.6-1.1c-0.5-0.5-0.8-1-1.1-1.6
			c-0.2-0.6-0.4-1.3-0.4-1.9v-2.9c0-0.7,0.1-1.3,0.4-1.9c0.3-0.6,0.6-1.2,1.1-1.6c0.5-0.5,1-0.8,1.6-1.1c0.6-0.2,1.2-0.4,1.9-0.4
			l312.5,3c1.3,0,2.5,0.5,3.4,1.5c0.9,0.9,1.4,2.2,1.4,3.5l0,0c0,1.3-0.5,2.6-1.4,3.5C1108.5,719.8,1107.3,720.4,1106,720.4
			L1106,720.4z"/>
	</g>
	<path class="st0" d="M1082.6,595.7H872.9v-8.2l209.7,1.9V595.7z"/>
	<path class="st7" d="M966.6,614.1h-93.7V606l93.7,1.9V614.1z"/>
	<path class="st7" d="M997,653.9H872.9v-8.2l124.1,1.9V653.9z"/>
	<path class="st10" d="M966.6,635.5h-93.7v-8.2l93.7,1.9V635.5z"/>
	<path class="st0" d="M1034.9,635.5H980v-8.2l54.9,1.9V635.5z"/>
	<path class="st7" d="M1073.6,614.1H980V606l93.7,1.9V614.1z"/>
	<g class="st3">
		<path class="st4" d="M1106.5,749l-313.4,3.8c-0.6,0-1.2-0.1-1.7-0.3c-0.5-0.2-1-0.6-1.4-1c-0.4-0.4-0.8-0.9-1-1.5
			c-0.2-0.6-0.3-1.2-0.3-1.8v-3.8c0-1.2,0.5-2.4,1.3-3.2c0.8-0.9,2-1.3,3.1-1.3h313.4c1.2,0,2.3,0.5,3.1,1.3c0.8,0.9,1.3,2,1.3,3.2
			l0,0c0,1.2-0.5,2.3-1.3,3.2C1108.8,748.5,1107.6,749,1106.5,749L1106.5,749z"/>
	</g>
	<g class="st3">
		<path class="st4" d="M609.2,849H437.7v-10.5l168.7,2.4c1.4,0,2.8,0.6,3.8,1.6c1,1,1.5,2.4,1.5,3.9l0,0c0,0.7-0.3,1.3-0.7,1.8
			C610.5,848.8,609.9,849,609.2,849z"/>
	</g>
	<g class="st3">
		<path class="st4" d="M662.8,874.7l-222.3,3.1c-0.4,0-0.7-0.1-1.1-0.2c-0.3-0.1-0.7-0.3-0.9-0.6c-0.3-0.3-0.5-0.6-0.6-0.9
			c-0.1-0.3-0.2-0.7-0.2-1.1v-4.6c0-0.8,0.3-1.5,0.8-2c0.5-0.5,1.2-0.8,2-0.8h222.3c0.7,0,1.4,0.3,2,0.8c0.5,0.5,0.8,1.3,0.8,2v1.6
			c0,0.7-0.3,1.5-0.8,2C664.3,874.3,663.6,874.7,662.8,874.7L662.8,874.7z"/>
	</g>
	<g class="st3">
		<path class="st4" d="M840,874.7l-155.5,3c-0.5,0-0.9-0.1-1.4-0.3c-0.4-0.2-0.8-0.4-1.2-0.8c-0.3-0.3-0.6-0.7-0.8-1.2
			c-0.2-0.4-0.3-0.9-0.3-1.4v-3c0-1,0.4-1.9,1-2.6c0.7-0.7,1.6-1.1,2.5-1.1H840c1,0,1.9,0.4,2.5,1.1c0.7,0.7,1.1,1.6,1.1,2.6
			c0,1-0.4,1.9-1.1,2.6C841.8,874.3,840.9,874.7,840,874.7L840,874.7z"/>
	</g>
	<g class="st3">
		<path class="st4" d="M1106.5,790.4l-313.4,3.8c-0.6,0-1.2-0.1-1.7-0.3c-0.5-0.2-1-0.6-1.4-1c-0.4-0.4-0.8-0.9-1-1.5
			c-0.2-0.6-0.3-1.2-0.3-1.8v-3.8c0-1.2,0.5-2.4,1.3-3.2c0.8-0.9,2-1.3,3.1-1.3h313.4c1.2,0,2.3,0.5,3.1,1.3c0.8,0.9,1.3,2,1.3,3.2
			l0,0c0,1.2-0.5,2.3-1.3,3.2C1108.8,789.9,1107.6,790.4,1106.5,790.4L1106.5,790.4z"/>
	</g>
	<path class="st4" d="M577.7,695.5H450.1c-8.1,0-14.7,6.8-14.7,15.2v82c0,8.4,6.6,15.2,14.7,15.2h127.6c8.1,0,14.7-6.8,14.7-15.2
		v-82C592.5,702.2,585.9,695.5,577.7,695.5z"/>
	<g class="st3">
		<path class="st4" d="M741.6,695.5H626.1c-6.9,0-12.5,5.8-12.5,12.9v86.5c0,7.1,5.6,12.9,12.5,12.9h115.5c6.9,0,12.5-5.8,12.5-12.9
			v-86.5C754.1,701.2,748.5,695.5,741.6,695.5z"/>
	</g>
	<path class="st7" d="M582.1,870.2c-0.8,46.8-4.1,110.8-14.5,166.9c-17.2,93.7-123.3,157.9-142.9,169c-1,0.5-2,0.8-3.1,0.9
		c-1.1,0-2.2-0.2-3.2-0.6C252.6,1128,255.2,1009,255.2,1009V869.2c0-1.9,0.7-3.7,2-5c1.3-1.3,3-2.1,4.9-2.1
		c25.3-0.4,113.4-5.3,151.9-51.8c0.6-0.7,1.4-1.4,2.3-1.8c0.9-0.4,1.8-0.7,2.8-0.7c1,0,1.9,0.1,2.8,0.5c0.9,0.4,1.7,0.9,2.4,1.6
		c16.6,17.3,70.7,65.4,157.6,60.3L582.1,870.2z"/>
	<path class="st9" d="M421.2,1183.3c-0.1,0-0.2,0-0.3-0.1c-33.8-15.7-62.5-34.6-85.4-56.2c-18.3-17.3-32.8-36.4-43.3-56.8
		c-17.8-34.7-17.4-61.4-17.4-61.7V891.4c0-3.2,1.2-6.3,3.3-8.6c2.2-2.3,5.1-3.6,8.2-3.7c12.4-0.4,37-2.1,62-8.6
		c29.8-7.7,51.8-19.9,65.4-36.1c0.6-0.8,1.4-1.4,2.3-1.8c0.9-0.4,1.8-0.7,2.8-0.7c1,0,2,0.1,2.9,0.5c0.9,0.4,1.7,0.9,2.4,1.7
		c9.2,9.7,34,33.4,65.7,42.7c19.7,5.7,40,8.9,60.5,9.8c3,0.1,5.9,1.5,8,3.8c2.1,2.3,3.2,5.3,3.1,8.4c-1.3,54.6-5.2,98.7-11.8,134.6
		c-3.8,20.7-12.9,41.5-27.1,61.8c-11.3,16.2-25.9,32.1-43.3,47.3c-17.9,15.6-37.2,29.3-57.8,40.9
		C421.5,1183.3,421.4,1183.3,421.2,1183.3L421.2,1183.3z M419.1,833.4h-0.2c-0.8,0-1.5,0.2-2.2,0.6c-0.7,0.3-1.3,0.8-1.8,1.4
		c-13.7,16.5-36,28.8-66.2,36.6c-25.2,6.5-49.8,8.2-62.3,8.6c-2.7,0.1-5.3,1.3-7.2,3.3c-1.9,2-2.9,4.7-2.9,7.5v117.2
		c0,0.3-0.4,26.7,17.3,61c10.4,20.2,24.8,39.1,43,56.3c22.6,21.4,51.1,40.2,84.6,55.7c20.3-11.5,39.5-25.1,57.2-40.6
		c27.1-23.7,61.3-61.7,69.8-108.1c6.6-35.8,10.4-79.8,11.8-134.3c0-2.7-0.9-5.3-2.7-7.3c-1.8-2-4.3-3.1-6.9-3.3
		c-20.6-0.8-41-4.1-60.8-9.8c-32.1-9.5-57.1-33.3-66.4-43.1c-0.5-0.5-1.1-1-1.8-1.3C420.6,833.6,419.9,833.4,419.1,833.4
		L419.1,833.4z"/>
	<path class="st9" d="M456.8,1066.3h-105c-4.7,0-9.2-1.9-12.5-5.3c-3.3-3.4-5.2-8-5.2-12.8v-66.6c0-4.8,1.9-9.4,5.2-12.8
		c3.3-3.4,7.8-5.3,12.5-5.3h5.9c2.5-10.7,8.5-20.3,16.9-27.1c8.4-6.8,18.9-10.5,29.6-10.5c10.7,0,21.2,3.7,29.6,10.5
		c8.4,6.8,14.4,16.4,16.9,27.1h5.9c4.7,0,9.2,1.9,12.5,5.3c3.3,3.4,5.2,8,5.2,12.8v66.6c0,4.8-1.9,9.4-5.2,12.8
		C466,1064.4,461.5,1066.3,456.8,1066.3z M351.8,965.1c-4.3,0-8.4,1.8-11.4,4.9c-3,3.1-4.7,7.3-4.7,11.7v66.6
		c0,4.4,1.7,8.6,4.7,11.7c3,3.1,7.1,4.8,11.4,4.9h105c4.3,0,8.4-1.8,11.4-4.9c3-3.1,4.7-7.3,4.7-11.7v-66.6c0-4.4-1.7-8.6-4.7-11.7
		c-3-3.1-7.1-4.9-11.4-4.9h-6.5c-0.2,0-0.3-0.1-0.5-0.2c-0.1-0.1-0.2-0.3-0.3-0.4c-2.4-10.5-8.1-19.9-16.3-26.6
		c-8.2-6.7-18.4-10.4-28.9-10.4c-10.5,0-20.7,3.7-28.9,10.4c-8.2,6.7-14,16.1-16.3,26.6c0,0.2-0.1,0.3-0.3,0.4
		c-0.1,0.1-0.3,0.2-0.5,0.2H351.8z M438.2,965.1h-67.8c-0.1,0-0.2,0-0.3-0.1c-0.1-0.1-0.2-0.1-0.3-0.2c-0.1-0.1-0.1-0.2-0.1-0.3
		c0-0.1,0-0.2,0-0.4c2.3-7.6,6.9-14.2,13.1-18.9c6.2-4.7,13.8-7.3,21.5-7.3c7.7,0,15.3,2.5,21.5,7.3c6.2,4.7,10.8,11.3,13.1,18.9
		c0,0.1,0,0.2,0,0.4c0,0.1-0.1,0.2-0.1,0.3c-0.1,0.1-0.2,0.2-0.3,0.2C438.5,965,438.4,965.1,438.2,965.1L438.2,965.1z M371.4,963.5
		h65.8c-2.4-7-6.8-13.1-12.7-17.5c-5.9-4.3-12.9-6.6-20.2-6.6c-7.2,0-14.3,2.3-20.2,6.6C378.3,950.4,373.8,956.5,371.4,963.5
		L371.4,963.5z"/>
	<path class="st9" d="M467,953.8h-98.9c-10,0-18.1,8.3-18.1,18.6v64.1c0,10.3,8.1,18.6,18.1,18.6H467c10,0,18.1-8.3,18.1-18.6v-64.1
		C485.1,962.1,477,953.8,467,953.8z"/>
	<path class="st9" d="M417.6,1013.1c-9.3,0-18.5-2.8-26.2-8.2c-7.8-5.3-13.8-12.9-17.4-21.8c-3.6-8.9-4.5-18.6-2.7-28
		c1.8-9.4,6.3-18,12.9-24.8c6.6-6.8,15-11.4,24.2-13.3c9.2-1.9,18.6-0.9,27.3,2.8c8.6,3.7,16,9.9,21.2,17.9c5.2,8,8,17.4,7.9,26.9
		c0,12.9-5,25.2-13.8,34.3C442.1,1008,430.1,1013.1,417.6,1013.1L417.6,1013.1z M417.6,928.1c-7,0-13.9,2.1-19.7,6.1
		c-5.8,4-10.4,9.7-13.1,16.4c-2.7,6.7-3.4,14-2,21.1c1.4,7.1,4.8,13.6,9.7,18.7c5,5.1,11.3,8.6,18.2,10c6.9,1.4,14,0.7,20.5-2.1
		c6.5-2.8,12-7.4,15.9-13.4s6-13.1,6-20.3c0-9.7-3.8-19-10.4-25.8C436,932,427,928.1,417.6,928.1L417.6,928.1z"/>
	<path class="st7" d="M417.6,1008.3c-1.3,0-2.6-0.5-3.5-1.5c-0.9-0.9-1.4-2.2-1.4-3.6v-24.5c0-1.3,0.5-2.6,1.4-3.6
		c0.9-0.9,2.2-1.5,3.5-1.5l0,0c1.3,0,2.6,0.5,3.5,1.5c0.9,0.9,1.4,2.2,1.4,3.6v24.5c0,1.3-0.5,2.6-1.4,3.6
		C420.1,1007.8,418.9,1008.3,417.6,1008.3L417.6,1008.3z"/>
	<path class="st7" d="M417.6,1030.6c7.3,0,13.3-6.1,13.3-13.6c0-7.5-5.9-13.6-13.3-13.6c-7.3,0-13.3,6.1-13.3,13.6
		C404.3,1024.5,410.3,1030.6,417.6,1030.6z"/>
	<path class="st9" d="M658.8,662.1c-0.3,0-0.6-0.1-0.8-0.2l-18.9-9.7c-0.2-0.1-0.4-0.3-0.6-0.5c-0.2-0.2-0.3-0.4-0.4-0.7
		c-0.1-0.2-0.1-0.5-0.1-0.7c0-0.3,0.1-0.5,0.2-0.7c0.1-0.2,0.3-0.4,0.4-0.6c0.2-0.2,0.4-0.3,0.6-0.4c0.2-0.1,0.5-0.1,0.7-0.1
		c0.2,0,0.5,0.1,0.7,0.2l18.9,9.7c0.4,0.2,0.8,0.5,1,0.9c0.2,0.4,0.3,0.9,0.2,1.3c-0.1,0.4-0.4,0.8-0.7,1.1
		C659.7,662,659.3,662.1,658.8,662.1L658.8,662.1z"/>
	<path class="st9" d="M631.9,685.4c-0.5,0-1-0.2-1.3-0.5c-0.4-0.3-0.6-0.8-0.6-1.3c0-0.5,0.2-1,0.5-1.4c0.3-0.4,0.8-0.6,1.3-0.6
		l21-1.5c0.5,0,1,0.1,1.4,0.5c0.4,0.3,0.6,0.8,0.6,1.3c0,0.5-0.1,1-0.5,1.4c-0.3,0.4-0.8,0.6-1.3,0.7l-21,1.5L631.9,685.4z"/>
	<path class="st9" d="M643.8,717.8c-0.4,0-0.8-0.1-1.2-0.4c-0.3-0.3-0.6-0.6-0.7-1c-0.1-0.4-0.1-0.9,0.1-1.3
		c0.2-0.4,0.5-0.7,0.9-0.9l18.3-11c0.2-0.1,0.4-0.2,0.7-0.2c0.2,0,0.5,0,0.7,0c0.2,0.1,0.5,0.2,0.7,0.3c0.2,0.2,0.4,0.3,0.5,0.6
		c0.1,0.2,0.2,0.5,0.2,0.7c0,0.3,0,0.5,0,0.7c-0.1,0.2-0.2,0.5-0.3,0.7c-0.1,0.2-0.3,0.4-0.5,0.5l-18.3,11
		C644.5,717.7,644.2,717.8,643.8,717.8L643.8,717.8z"/>
	<path class="st9" d="M720.3,662.1c-0.3,0-0.7-0.1-1-0.3c-0.3-0.2-0.5-0.5-0.7-0.8c-0.1-0.2-0.2-0.5-0.2-0.7c0-0.3,0-0.5,0.1-0.7
		c0.1-0.2,0.2-0.5,0.4-0.7c0.2-0.2,0.4-0.3,0.6-0.5l18.9-9.7c0.2-0.1,0.5-0.2,0.7-0.2c0.2,0,0.5,0,0.7,0.1c0.2,0.1,0.5,0.2,0.6,0.4
		c0.2,0.2,0.3,0.4,0.5,0.6c0.1,0.2,0.2,0.5,0.2,0.7c0,0.3,0,0.5-0.1,0.7c-0.1,0.2-0.2,0.5-0.4,0.7c-0.2,0.2-0.3,0.3-0.6,0.5l-19,9.7
		C720.8,662,720.6,662.1,720.3,662.1z"/>
	<path class="st9" d="M747.1,685.4H747l-21-1.5c-0.5,0-1-0.3-1.3-0.7c-0.3-0.4-0.5-0.9-0.5-1.4c0-0.5,0.3-1,0.6-1.3
		c0.4-0.3,0.9-0.5,1.4-0.5l21,1.5c0.5,0,1,0.2,1.3,0.6c0.3,0.4,0.5,0.9,0.5,1.4c0,0.5-0.2,1-0.6,1.3
		C748.1,685.3,747.6,685.5,747.1,685.4L747.1,685.4z"/>
	<path class="st9" d="M735.3,717.8c-0.3,0-0.6-0.1-0.9-0.3l-18.3-11c-0.2-0.1-0.4-0.3-0.5-0.5c-0.1-0.2-0.3-0.4-0.3-0.7
		c-0.1-0.2-0.1-0.5,0-0.7c0-0.2,0.1-0.5,0.2-0.7c0.1-0.2,0.3-0.4,0.5-0.6c0.2-0.2,0.4-0.3,0.7-0.3c0.2-0.1,0.5-0.1,0.7,0
		c0.2,0,0.5,0.1,0.7,0.2l18.2,11c0.4,0.2,0.7,0.5,0.9,0.9c0.2,0.4,0.2,0.8,0.1,1.3c-0.1,0.4-0.4,0.8-0.7,1
		C736.1,717.7,735.7,717.8,735.3,717.8L735.3,717.8z"/>
	<path class="st0" d="M727.2,674.4c0,25-16.1,45.5-36.4,46.7c-0.7,0-1.3,0.1-2,0.1c-21.2,0-38.4-20.9-38.4-46.7
		c-0.1-10.4,2.9-20.6,8.5-29.2c7-10.7,17.8-17.5,30-17.5c3.3,0,6.6,0.5,9.8,1.5c8.3,2.8,15.4,8.5,20.2,16
		C724.3,653.8,727.2,664,727.2,674.4L727.2,674.4z"/>
	<path class="st0" d="M727.2,674.4c0,25-16.1,45.5-36.4,46.7c-2.6-7.7-4.5-15.7-5.6-23.8c-2.3-16.8-1.3-32.7,2.2-45.7
		c2.5-9.2,6.3-17,11.2-22.4c8.3,2.8,15.4,8.5,20.2,16C724.3,653.8,727.2,664,727.2,674.4L727.2,674.4z"/>
	<path class="st9" d="M688.8,662.7c16.5,0,30-7.8,30-17.5c0-9.7-13.4-17.5-30-17.5c-16.5,0-30,7.8-30,17.5
		C658.8,654.9,672.2,662.7,688.8,662.7z"/>
	<path class="st9" d="M680.4,633.7c-0.5,0-1-0.2-1.3-0.6c-0.3-0.4-0.5-0.8-0.5-1.3c-0.3-14.6-13.5-20.6-13.6-20.6
		c-0.5-0.2-0.8-0.6-1-1.1c-0.2-0.5-0.2-1,0-1.5c0.2-0.5,0.6-0.8,1-1c0.5-0.2,1-0.2,1.4,0c0.6,0.3,15.5,7,15.9,24.1
		c0,0.3,0,0.5-0.1,0.7c-0.1,0.2-0.2,0.5-0.4,0.6c-0.2,0.2-0.4,0.3-0.6,0.4C680.9,633.7,680.7,633.7,680.4,633.7L680.4,633.7z"/>
	<path class="st9" d="M695.9,638.7c-0.5,0-0.9-0.2-1.3-0.5c-0.3-0.3-0.5-0.8-0.6-1.3c-1.6-20.6,12.1-28.8,12.7-29.1
		c0.4-0.3,0.9-0.3,1.4-0.2c0.5,0.1,0.9,0.5,1.1,0.9c0.2,0.4,0.3,1,0.2,1.5c-0.1,0.5-0.5,0.9-0.9,1.2c-0.5,0.3-12.2,7.4-10.8,25.5
		c0,0.3,0,0.5-0.1,0.7c-0.1,0.2-0.2,0.5-0.4,0.7c-0.2,0.2-0.4,0.3-0.6,0.5c-0.2,0.1-0.5,0.2-0.7,0.2L695.9,638.7z"/>
	<g class="st11">
		<path class="st7" d="M801.5,793.5c60.9-62.6,60.9-164.1,0-226.8c-60.9-62.6-159.7-62.6-220.7,0c-60.9,62.6-60.9,164.1,0,226.8
			C641.8,856.1,740.6,856.1,801.5,793.5z"/>
	</g>
	<path class="st12" d="M868.5,816.8c0,0-27.6,0.6-35.1-11.8c-7.6-12.4,5.2-23.2,5.2-23.2l41,22.8L868.5,816.8z"/>
	<path class="st9" d="M825.6,751.8l-12,19.9l304.4,193.7l12-19.9L825.6,751.8z"/>
	<path class="st9" d="M1132.9,953.8l-6.5,10.8c-1.2,2.1-3.3,3.5-5.5,4.1c-2.3,0.6-4.7,0.1-6.7-1.1L955.3,866.5c-2-1.3-3.4-3.3-4-5.7
		c-0.6-2.4-0.2-4.9,1.1-6.9l6.5-10.8c1.2-2.1,3.2-3.5,5.5-4.1c2.3-0.6,4.7-0.1,6.7,1.1L1130,941.1c2,1.3,3.4,3.3,4,5.7
		C1134.5,949.2,1134.1,951.7,1132.9,953.8z"/>
	<path class="st9" d="M552.3,591.7c-17,28.2-25.5,61-24.4,94.2c1.1,33.2,11.8,65.3,30.6,92.2c18.9,27,45.1,47.5,75.3,59.2
		c30.3,11.6,63.2,13.8,94.6,6.2s60-24.6,82.1-48.9c22-24.3,36.6-54.7,41.8-87.5c5.2-32.8,0.8-66.4-12.5-96.6
		c-13.4-30.2-35.2-55.7-62.6-73.2c-18.2-11.6-38.5-19.4-59.7-23c-21.2-3.6-42.8-2.8-63.7,2.3c-20.9,5-40.6,14.3-58,27.1
		C578.4,556.7,563.6,573,552.3,591.7L552.3,591.7z M817.9,760.7c-15.5,25.7-38.1,46.2-65,58.7c-26.8,12.5-56.7,16.6-85.7,11.8
		c-29.1-4.9-56.1-18.5-77.7-39.2c-21.5-20.7-36.6-47.4-43.4-76.9c-6.7-29.5-4.8-60.4,5.5-88.7c10.3-28.4,28.6-52.9,52.6-70.6
		c23.9-17.7,52.4-27.7,81.9-28.7c29.5-1,58.5,6.9,83.6,22.9c16.6,10.6,31.1,24.4,42.5,40.8c11.5,16.3,19.6,34.8,24.1,54.4
		c4.5,19.6,5.2,39.9,2,59.7C835.1,724.6,828.2,743.7,817.9,760.7z"/>
	<path class="st7" d="M1114.9,852.6c-7.4-56.7-69.3-88.8-69.3-88.8s5.2,126.4,15.8,122.7C1079.6,880.1,1104.4,880,1114.9,852.6z"/>
	<path class="st9" d="M994,1171.4c0,0-0.5,9.5-6.7,12c-6.2,2.5-24.1,4.4-17.6,10.7c3.7,3.6,21.8,1.9,26.9,2
		c5.1,0.1,9.8,2.6,13.7-0.9c4.3-3.8,0.6-23.4,0.6-23.4s-4.5,2.3-8.4,2C996.8,1173.6,994,1171.4,994,1171.4z"/>
	<path class="st13" d="M949.3,932c1.2,19.7,3.4,45.3,7.6,76.6c7.9,59.7,17.5,119.8,22.3,148.6c0.7,4.9,3.1,9.5,6.6,12.9
		c3.6,3.4,8.1,5.5,12.9,5.9l5.3,0.4c10.6,0.7,19.4-8.5,19-19.8l-8.3-194.5l-0.8-30.9C1013.9,931.2,947.3,899.7,949.3,932z"/>
	<path class="st9" d="M1052.4,1173c0,0-0.5,9.5-6.7,12c-6.2,2.5-24.1,4.4-17.6,10.7c3.7,3.6,21.8,1.9,26.9,2
		c5.1,0.1,9.8,2.6,13.7-0.9c4.3-3.8,0.6-23.4,0.6-23.4s-4.5,2.3-8.4,2C1055.1,1175.3,1052.4,1173,1052.4,1173z"/>
	<path class="st13" d="M1006.6,884.8c0,0-2.3,42.8,8.6,125.5c8,59.7,17.6,119.8,22.3,148.6c0.7,4.9,3.1,9.5,6.6,12.9
		c3.6,3.4,8.1,5.5,13,5.9l5.3,0.4c10.6,0.7,19.4-8.5,18.9-19.8l-8.3-194.5l-1.6-64L1006.6,884.8z"/>
	<path class="st9" d="M1017.9,1027.1l-0.8-0.1c0-0.3,4.5-35.5,7.9-48.1c3.4-12.6,19.2-23.7,19.4-23.8l0.5,0.7
		c-0.1,0.1-15.7,10.9-19,23.3C1022.4,991.6,1017.9,1026.8,1017.9,1027.1z"/>
	<path class="st12" d="M1018,753.1l-4.1-12.8l-1.2-3.7l-7-21.9l-0.9,21.8l-0.6,13.1l-0.2,4.1c-0.1,2.8-1.9,3.4-4.1,5.9
		c-0.9,0.9-6.4,7-0.1,9.7c7.9,3.4,22.7-1.7,28.3-8.5C1028.2,760.8,1019.4,757.3,1018,753.1z"/>
	<path class="st12" d="M1026.4,726.6c2.4-12.8-4.5-24.9-15.5-27c-10.9-2.1-21.7,6.5-24,19.2c-2.4,12.8,4.5,24.9,15.5,27
		C1013.3,748,1024,739.4,1026.4,726.6z"/>
	<path class="st9" d="M995.5,714.6c-11.5,0.4-17.1-6-17.2-12c-0.2-7.6,4.8-14.4,10.6-11.6c5.8,2.8,3.3-4.1,8.9-4.9
		c10.4-1.4,12.4,5.8,20.8,6.1c11.2,0.5,24,18.6,14.6,31.8C1033.1,724.1,1004.6,714.3,995.5,714.6z"/>
	<path class="st9" d="M985.2,706.9c0,0,12.3,11.5,10.7,17.9c-1.6,6.5-1.2,9,6,12.4c7.2,3.4,0.8,9,10.4,9.5
		c9.6,0.4,21.3-10.6,21.3-28.6c-0.1-6.1-2.1-12-6-16.6L985.2,706.9z"/>
	<path class="st14" d="M989.7,724.6c0.6-0.9,1.6-1.6,2.6-1.8c1.1-0.2,2.1-0.1,3.1,0.5c0.4,0.3,0.8,0.7,1,1.2s0.5,1,0.5,1.5
		c0.1,0.5,0,1.1-0.1,1.6c-0.1,0.5-0.4,1-0.7,1.4c-0.6,0.9-1.6,1.6-2.6,1.8c-1.1,0.2-2.1,0.1-3.1-0.5c-0.4-0.3-0.8-0.7-1-1.2
		c-0.3-0.5-0.5-1-0.5-1.5c-0.1-0.5,0-1.1,0.1-1.6C989.1,725.4,989.4,725,989.7,724.6z"/>
	<path class="st9" d="M1037.7,729.1c-0.1,0-0.1,0-0.2-0.1c-0.1,0-0.1-0.1-0.1-0.2c-0.5-1.6-1.5-2.9-3-3.8c0,0-0.1,0-0.1-0.1
		c0,0,0-0.1-0.1-0.1c0,0,0-0.1,0-0.1s0-0.1,0-0.1c0,0,0.1-0.1,0.1-0.1c0,0,0.1,0,0.1-0.1c0,0,0.1,0,0.1,0c0,0,0.1,0,0.1,0
		c1.6,0.9,2.7,2.4,3.3,4.2c0,0,0,0.1,0,0.1s0,0.1-0.1,0.1c0,0,0,0.1-0.1,0.1C1037.9,729.1,1037.9,729.1,1037.7,729.1L1037.7,729.1z"
		/>
	<path class="st9" d="M1034.6,723.7c-0.1,0-0.2,0-0.2-0.1c-0.1-0.1-0.1-0.1-0.1-0.2c0,0,0-0.1,0-0.1c0,0,0-0.1,0.1-0.1
		c0,0,0.1-0.1,0.1-0.1c0,0,0.1,0,0.1,0c0,0,3.1-0.2,3.6-2.5c0-0.1,0.1-0.1,0.1-0.2c0.1,0,0.1-0.1,0.2,0c0.1,0,0.1,0.1,0.2,0.1
		c0.1,0.1,0.1,0.1,0.1,0.2C1038.2,723.4,1034.8,723.7,1034.6,723.7L1034.6,723.7z"/>
	<path class="st9" d="M990.6,690.6c-0.2,0-0.4,0-0.6-0.1c-0.8-0.3-1.6-0.7-2.4-1.2c-0.7-0.6-1.5-0.9-2.3-1.1
		c-0.8-0.1-1.7-0.1-2.5,0.2c-0.1,0-0.1,0-0.1,0c-0.1,0-0.1,0-0.1,0c0,0-0.1,0-0.1-0.1c0,0,0-0.1-0.1-0.1c0,0,0-0.1,0-0.1
		c0,0,0-0.1,0-0.1c0,0,0.1-0.1,0.1-0.1c0,0,0.1,0,0.1-0.1c0.9-0.3,1.8-0.4,2.8-0.2c0.9,0.2,1.8,0.6,2.5,1.2c0.7,0.5,1.4,0.9,2.2,1.1
		c0.2,0.1,0.4,0.1,0.6,0.1c0.2,0,0.4-0.1,0.6-0.2c1.2-0.9,1.6-3.8,1.6-3.8c0-0.1,0.1-0.1,0.1-0.2c0.1,0,0.1-0.1,0.2-0.1
		c0,0,0.1,0,0.1,0c0,0,0.1,0,0.1,0.1c0,0,0.1,0.1,0.1,0.1c0,0,0,0.1,0,0.1c0,0.1-0.3,3.2-1.8,4.2C991.3,690.5,991,690.6,990.6,690.6
		z"/>
	<path class="st9" d="M1017.7,691.4c-2.7-0.1-5.3-1.2-7.4-3c0,0-0.1-0.1-0.1-0.1c0,0,0-0.1-0.1-0.1c0,0,0-0.1,0-0.1
		c0,0,0-0.1,0.1-0.1c0,0,0.1-0.1,0.1-0.1c0,0,0.1,0,0.1,0c0.1,0,0.1,0,0.1,0c0,0,0.1,0,0.1,0.1c0,0,3.8,3.4,8.2,2.7
		c0.1,0,0.2,0,0.2,0.1c0.1,0,0.1,0.1,0.1,0.2c0,0.1,0,0.2-0.1,0.2c-0.1,0.1-0.1,0.1-0.2,0.1C1018.5,691.4,1018.1,691.4,1017.7,691.4
		L1017.7,691.4z"/>
	<path class="st9" d="M992.8,731c-0.3,0-0.5,0-0.8-0.1c0,0,0,0-0.1,0c0,0,0,0-0.1,0c0,0,0,0,0-0.1c0,0,0,0,0-0.1c0,0,0,0,0-0.1
		c0,0,0,0,0.1,0c0,0,0,0,0.1,0c0,0,0.1,0,0.1,0c0.1,0,2.6,0.8,4.4-2.6c0,0,0,0,0,0c0,0,0,0,0.1,0c0,0,0,0,0.1,0c0,0,0,0,0.1,0
		c0,0,0.1,0,0.1,0.1c0,0,0,0.1,0,0.1C995.4,730.6,993.8,731,992.8,731z"/>
	<path class="st9" d="M949.3,932c0,0,83.5-4.7,123.1,5.2l0.6-11.8l-55.6-17.1l-44.9,1.1l-13.8,3.1l-9.7,15.7L949.3,932z"/>
	<path class="st7" d="M1065,788.5c0,0-7.4-33-52.3-33c-78.3,0-56.4,66.6-63.6,172.6c0,0,50.5-11.4,123.6,3.8c0,0,7.1-57.4-2.1-105.9
		C1068.1,813.3,1068.5,799.7,1065,788.5z"/>
	<path class="st7" d="M1003.7,755.6c0,0-25.1,0.4-43.8,18.8c-18.7,18.4-42.7,43.7-47.8,58.3c-6.3,18,5.3,36,20,36.4
		c14.7,0.4,27.9-10.7,27.9-10.7L1003.7,755.6z"/>
	<path class="st9" d="M1075,906.1h-0.6c2.2-41.6-4.9-84.1-5-84.5l0.6-0.1C1070.1,821.9,1077.2,864.5,1075,906.1z"/>
	<path class="st9" d="M951.1,864.3l-0.3-0.5c14.8-9.1,34-33,34.2-33.3l0.4,0.4C985.3,831.1,966,855.1,951.1,864.3z"/>
	<path class="st7" d="M848.6,821.5c-0.2,11.8,56.5,54.7,90.4,47.5c36.1-7.6-8.5-48.9-8.5-48.9L864,804.4
		C864,804.4,848.8,809.6,848.6,821.5z"/>
	<path class="st12" d="M864,804.4c0.2-1.4,0.1-2.8-0.4-4.1c-0.5-1.3-1.2-2.5-2.2-3.4c-3.4-3.1-7-17.2-9.2-13.7
		c-2.2,3.5-0.2,14.8-3.6,16C845.2,800.5,864,804.4,864,804.4z"/>
	<path class="st7" d="M888.9,553.2h-3.3c-0.5,0-0.9,0.2-1.2,0.5c-0.3,0.3-0.5,0.7-0.5,1.2V570c0,0.4-0.2,0.9-0.5,1.2
		c-0.3,0.3-0.7,0.5-1.2,0.5h-1.2c-0.5,0-0.8-0.2-1.2-0.5c-0.3-0.3-0.5-0.7-0.5-1.2v-15.2c0-0.4-0.2-0.9-0.5-1.2
		c-0.3-0.3-0.7-0.5-1.2-0.5h-3.3c-0.5,0-0.9-0.2-1.2-0.5c-0.3-0.3-0.5-0.7-0.5-1.2v-0.3c0-0.4,0.2-0.9,0.5-1.2
		c0.3-0.3,0.7-0.5,1.2-0.5h14.4c0.5,0,0.8,0.2,1.2,0.5c0.3,0.3,0.5,0.7,0.5,1.2v0.3c0,0.5-0.2,0.9-0.5,1.2
		C889.8,553,889.4,553.2,888.9,553.2L888.9,553.2z"/>
	<path class="st7" d="M904.5,562.1h-5.3c-0.4,0-0.8,0.2-1.1,0.5c-0.3,0.3-0.5,0.7-0.5,1.2v2.6c0,0.4,0.2,0.9,0.5,1.2
		c0.3,0.3,0.7,0.5,1.1,0.5h6.8c0.2,0,0.5,0,0.6,0.1c0.2,0.1,0.4,0.2,0.5,0.4c0.2,0.2,0.3,0.3,0.4,0.6c0.1,0.2,0.1,0.4,0.1,0.6v0.3
		c0,0.2,0,0.4-0.1,0.6c-0.1,0.2-0.2,0.4-0.4,0.6c-0.2,0.2-0.3,0.3-0.5,0.4c-0.2,0.1-0.4,0.1-0.6,0.1h-11.2c-0.4,0-0.8-0.2-1.2-0.5
		c-0.3-0.3-0.5-0.7-0.5-1.2v-18.9c0-0.4,0.2-0.9,0.5-1.2c0.3-0.3,0.7-0.5,1.2-0.5h11.2c0.5,0,0.8,0.2,1.2,0.5
		c0.3,0.3,0.5,0.7,0.5,1.2v0.3c0,0.4-0.2,0.9-0.5,1.2c-0.3,0.3-0.7,0.5-1.2,0.5h-6.8c-0.4,0-0.8,0.2-1.1,0.5
		c-0.3,0.3-0.5,0.7-0.5,1.2v1.9c0,0.4,0.2,0.9,0.5,1.2c0.3,0.3,0.7,0.5,1.1,0.5h5.3c0.4,0,0.8,0.2,1.2,0.5c0.3,0.3,0.5,0.7,0.5,1.2
		v0.2c0,0.2,0,0.5-0.1,0.7c-0.1,0.2-0.2,0.4-0.3,0.6c-0.2,0.2-0.3,0.3-0.6,0.4C904.9,562,904.7,562.1,904.5,562.1L904.5,562.1z"/>
	<path class="st7" d="M921.5,565.9c0-0.4-0.1-0.7-0.2-1c-0.1-0.3-0.3-0.6-0.6-0.9c-0.4-0.3-0.8-0.6-1.3-0.8
		c-0.7-0.3-1.4-0.6-2.1-0.8c-0.9-0.3-1.9-0.7-2.8-1.1c-0.8-0.4-1.6-0.9-2.3-1.4c-0.6-0.5-1.2-1.2-1.6-1.9c-0.4-0.8-0.6-1.7-0.6-2.5
		c0-0.9,0.2-1.8,0.6-2.5c0.4-0.8,1-1.5,1.6-2c0.8-0.6,1.6-1,2.5-1.3c1.1-0.3,2.1-0.5,3.2-0.4c1.1,0,2.2,0.2,3.3,0.5
		c0.9,0.3,1.8,0.8,2.5,1.4c0.7,0.6,1.2,1.3,1.6,2.2c0.1,0.2,0.2,0.4,0.2,0.5c0.1,0.3,0.1,0.5,0.1,0.8c0,0.3-0.1,0.5-0.3,0.7
		c-0.2,0.2-0.3,0.4-0.6,0.5c-0.2,0.1-0.5,0.2-0.7,0.2h-1.2c-0.3,0-0.7-0.1-1-0.3c-0.3-0.2-0.5-0.5-0.6-0.8c0,0,0-0.1,0-0.1
		c-0.1-0.4-0.4-0.7-0.7-1c-0.3-0.3-0.7-0.5-1.1-0.7c-0.5-0.2-1-0.3-1.6-0.2c-0.5,0-1,0.1-1.5,0.2c-0.4,0.1-0.8,0.3-1.1,0.5
		c-0.3,0.2-0.5,0.5-0.6,0.8c-0.1,0.3-0.2,0.7-0.2,1c0,0.4,0.1,0.8,0.3,1.1c0.2,0.3,0.5,0.6,0.8,0.8c1,0.6,2.1,1.1,3.2,1.4
		c1.1,0.3,2.1,0.8,3.1,1.3c0.8,0.4,1.6,0.9,2.3,1.6c0.6,0.6,1,1.2,1.4,2c0.3,0.8,0.5,1.6,0.5,2.5c0,0.9-0.2,1.8-0.6,2.6
		c-0.4,0.8-0.9,1.4-1.6,1.9c-0.7,0.6-1.6,1-2.5,1.2c-1,0.3-2.1,0.4-3.2,0.4c-0.7,0-1.4-0.1-2.1-0.2c-0.7-0.1-1.4-0.3-2-0.6
		c-0.7-0.2-1.3-0.6-1.9-0.9c-0.5-0.4-1-0.9-1.5-1.4c-0.4-0.6-0.7-1.2-1-1.8V567c-0.1-0.3-0.1-0.5-0.1-0.8c0-0.3,0.1-0.5,0.3-0.7
		c0.2-0.2,0.4-0.4,0.6-0.5c0.2-0.1,0.5-0.2,0.7-0.2h1.2c0.3,0,0.7,0.1,1,0.3c0.3,0.2,0.5,0.5,0.6,0.9c0,0.2,0.1,0.3,0.2,0.5
		c0.2,0.4,0.5,0.8,0.8,1.1c0.4,0.3,0.9,0.5,1.4,0.6c0.6,0.1,1.1,0.2,1.7,0.2c0.5,0,1-0.1,1.5-0.2c0.4-0.1,0.7-0.3,1-0.5
		c0.3-0.2,0.5-0.5,0.6-0.8C921.5,566.6,921.6,566.2,921.5,565.9L921.5,565.9z"/>
	<path class="st7" d="M943.7,553.2h-3.3c-0.5,0-0.9,0.2-1.2,0.5c-0.3,0.3-0.5,0.7-0.5,1.2V570c0,0.4-0.2,0.9-0.5,1.2
		c-0.3,0.3-0.7,0.5-1.2,0.5h-1.2c-0.4,0-0.8-0.2-1.2-0.5c-0.3-0.3-0.5-0.7-0.5-1.2v-15.2c0-0.4-0.2-0.9-0.5-1.2
		c-0.3-0.3-0.7-0.5-1.2-0.5h-3.2c-0.5,0-0.8-0.2-1.2-0.5c-0.3-0.3-0.5-0.7-0.5-1.2v-0.3c0-0.2,0-0.5,0.1-0.7
		c0.1-0.2,0.2-0.4,0.3-0.6c0.2-0.2,0.3-0.3,0.6-0.4c0.2-0.1,0.4-0.1,0.6-0.1h14.4c0.5,0,0.9,0.2,1.2,0.5c0.3,0.3,0.5,0.7,0.5,1.2
		v0.3c0,0.2,0,0.5-0.1,0.7c-0.1,0.2-0.2,0.4-0.3,0.6c-0.2,0.2-0.3,0.3-0.6,0.4C944.2,553.2,944,553.2,943.7,553.2L943.7,553.2z"/>
	<path class="st7" d="M951,571.7h-1.2c-0.4,0-0.8-0.2-1.2-0.5c-0.3-0.3-0.5-0.7-0.5-1.2v-18.9c0-0.4,0.2-0.9,0.5-1.2
		c0.3-0.3,0.7-0.5,1.2-0.5h1.2c0.4,0,0.8,0.2,1.2,0.5c0.3,0.3,0.5,0.7,0.5,1.2V570c0,0.4-0.2,0.9-0.5,1.2
		C951.9,571.6,951.5,571.7,951,571.7z"/>
	<path class="st7" d="M972.8,571.7h-1.9c-0.3,0-0.6-0.1-0.8-0.2c-0.2-0.1-0.5-0.3-0.6-0.6l-5.2-8.7c-0.2-0.3-0.5-0.6-0.8-0.7
		c-0.3-0.1-0.7-0.2-1-0.1c-0.3,0.1-0.6,0.3-0.9,0.6c-0.2,0.3-0.3,0.6-0.3,1v7c0,0.4-0.2,0.9-0.5,1.2c-0.3,0.3-0.7,0.5-1.2,0.5h-1.2
		c-0.4,0-0.8-0.2-1.2-0.5c-0.3-0.3-0.5-0.7-0.5-1.2v-18.9c0-0.4,0.2-0.9,0.5-1.2c0.3-0.3,0.7-0.5,1.2-0.5h1.9c0.3,0,0.6,0.1,0.8,0.2
		c0.2,0.1,0.5,0.3,0.6,0.6l5.2,8.7c0.2,0.3,0.5,0.6,0.8,0.7c0.3,0.1,0.7,0.2,1.1,0.1c0.3-0.1,0.6-0.3,0.9-0.6c0.2-0.3,0.3-0.7,0.3-1
		v-7c0-0.4,0.2-0.9,0.5-1.2c0.3-0.3,0.7-0.5,1.1-0.5h1.2c0.5,0,0.9,0.2,1.2,0.5c0.3,0.3,0.5,0.7,0.5,1.2V570c0,0.4-0.2,0.9-0.5,1.2
		C973.7,571.6,973.3,571.7,972.8,571.7z"/>
	<path class="st7" d="M995.5,568.2c0,0.2-0.1,0.5-0.1,0.7c-0.1,0.2-0.2,0.4-0.4,0.6c-0.1,0.1-0.3,0.3-0.5,0.4
		c-0.5,0.4-1.1,0.7-1.7,1c-0.8,0.3-1.6,0.6-2.4,0.8c-1.1,0.2-2.1,0.3-3.2,0.3c-1.3,0-2.6-0.2-3.8-0.7c-1.1-0.5-2.1-1.2-3-2.1
		c-0.8-1-1.5-2.1-1.9-3.4c-0.5-1.5-0.7-3-0.7-4.6v-1.3c0-1.6,0.2-3.1,0.7-4.6c0.4-1.2,1-2.4,1.9-3.4c0.8-0.9,1.7-1.6,2.9-2.1
		c1.2-0.5,2.5-0.7,3.7-0.7c1.2,0,2.5,0.2,3.7,0.5c1,0.3,1.8,0.8,2.6,1.5c0.7,0.7,1.2,1.5,1.6,2.3c0.1,0.2,0.2,0.5,0.3,0.8
		c0.1,0.3,0.1,0.5,0.1,0.8c0,0.3-0.1,0.5-0.3,0.7c-0.2,0.2-0.3,0.4-0.6,0.5c-0.2,0.1-0.5,0.2-0.7,0.2h-1c-0.3,0-0.7-0.1-1-0.3
		c-0.3-0.2-0.5-0.5-0.6-0.8l-0.1-0.4c-0.2-0.4-0.5-0.8-0.8-1.2c-0.3-0.3-0.8-0.6-1.2-0.7c-0.6-0.2-1.1-0.3-1.7-0.3
		c-0.7,0-1.4,0.1-2,0.4c-0.6,0.3-1.1,0.8-1.5,1.4c-0.9,1.6-1.3,3.4-1.2,5.3v1.3c-0.1,1.9,0.3,3.7,1.3,5.3c0.4,0.6,1,1.1,1.6,1.4
		c0.6,0.3,1.4,0.5,2.1,0.4c0.5,0,1,0,1.4-0.1c0.3-0.1,0.7-0.1,1-0.3c0.2-0.1,0.5-0.2,0.7-0.3c0.2-0.1,0.3-0.2,0.5-0.4v-2.1
		c0-0.4-0.2-0.9-0.5-1.2c-0.3-0.3-0.7-0.5-1.2-0.5h-0.8c-0.4,0-0.8-0.2-1.1-0.5c-0.3-0.3-0.5-0.7-0.5-1.2l0,0c0-0.4,0.2-0.9,0.5-1.2
		c0.3-0.3,0.7-0.5,1.2-0.5h5.3c0.2,0,0.4,0,0.6,0.1c0.2,0.1,0.4,0.2,0.6,0.4c0.1,0.2,0.3,0.3,0.3,0.6c0.1,0.2,0.1,0.4,0.1,0.6
		L995.5,568.2z"/>
</g>
</svg>
