<?xml version="1.0" encoding="utf-8"?>
<!-- Generator: Adobe Illustrator 22.0.0, SVG Export Plug-In . SVG Version: 6.00 Build 0)  -->
<svg version="1.1" id="Layer_1" xmlns="http://www.w3.org/2000/svg" xmlns:xlink="http://www.w3.org/1999/xlink" x="0px" y="0px"
	 viewBox="0 0 1500 1500" style="enable-background:new 0 0 1500 1500;" xml:space="preserve">
<style type="text/css">
	.st0{fill:#FCA311;}
	.st1{fill:url(#SVGID_1_);}
	.st2{fill:url(#SVGID_2_);}
	.st3{fill:url(#SVGID_3_);}
	.st4{fill:url(#SVGID_4_);}
</style>
<g>
	<path class="st0" d="M693.1,29v432.5H77.5c65-202.3,230-357.3,437-406.5C573.4,41,633.1,32.4,693.1,29z"/>
	
		<linearGradient id="SVGID_1_" gradientUnits="userSpaceOnUse" x1="223.2368" y1="1575.5198" x2="1098.5487" y2="-146.4599" gradientTransform="matrix(1 0 0 -1 0 1502)">
		<stop  offset="0" style="stop-color:#09C6F9"/>
		<stop  offset="1" style="stop-color:#045DE9"/>
	</linearGradient>
	<path class="st1" d="M693.1,29v432.5H77.5c65-202.3,230-357.3,437-406.5C573.4,41,633.1,32.4,693.1,29z"/>
	<path class="st0" d="M806.9,29v893.3h642.3c22.6-136.3,18.3-276.1-13-411.1C1383.8,284.8,1209.1,108.1,985.5,55
		C926.7,41,866.9,32.4,806.9,29z"/>
	
		<linearGradient id="SVGID_2_" gradientUnits="userSpaceOnUse" x1="625.2197" y1="1781.7094" x2="1500.8793" y2="59.0458" gradientTransform="matrix(1 0 0 -1 0 1502)">
		<stop  offset="0" style="stop-color:#09C6F9"/>
		<stop  offset="1" style="stop-color:#045DE9"/>
	</linearGradient>
	<path class="st2" d="M806.9,29v893.3h642.3c22.6-136.3,18.3-276.1-13-411.1C1383.8,284.8,1209.1,108.1,985.5,55
		C926.7,41,866.9,32.4,806.9,29z"/>
	<path class="st0" d="M1422.5,1037.5H806.9V1470c60-3.4,119.7-12,178.6-26C1192.5,1394.9,1357.5,1239.8,1422.5,1037.5z"/>
	
		<linearGradient id="SVGID_3_" gradientUnits="userSpaceOnUse" x1="396.0772" y1="1662.0322" x2="1271.3892" y2="-59.9474" gradientTransform="matrix(1 0 0 -1 0 1502)">
		<stop  offset="0" style="stop-color:#09C6F9"/>
		<stop  offset="1" style="stop-color:#045DE9"/>
	</linearGradient>
	<path class="st3" d="M1422.5,1037.5H806.9V1470c60-3.4,119.7-12,178.6-26C1192.5,1394.9,1357.5,1239.8,1422.5,1037.5z"/>
	<path class="st0" d="M693.1,1470V576.7H50.7C28.1,713,32.5,852.8,63.8,987.8c52.4,226.4,227.1,403.1,450.8,456.2
		C573.4,1458,633.1,1466.6,693.1,1470z"/>
	
		<linearGradient id="SVGID_4_" gradientUnits="userSpaceOnUse" x1="-6.2555" y1="1456.5308" x2="869.4041" y2="-266.1329" gradientTransform="matrix(1 0 0 -1 0 1502)">
		<stop  offset="0" style="stop-color:#09C6F9"/>
		<stop  offset="1" style="stop-color:#045DE9"/>
	</linearGradient>
	<path class="st4" d="M693.1,1470V576.7H50.7C28.1,713,32.5,852.8,63.8,987.8c52.4,226.4,227.1,403.1,450.8,456.2
		C573.4,1458,633.1,1466.6,693.1,1470z"/>
</g>
</svg>
