<?xml version="1.0" encoding="utf-8"?>
<!-- Generator: Adobe Illustrator 22.0.0, SVG Export Plug-In . SVG Version: 6.00 Build 0)  -->
<svg version="1.1" id="Layer_1" xmlns="http://www.w3.org/2000/svg" xmlns:xlink="http://www.w3.org/1999/xlink" x="0px" y="0px"
	 viewBox="0 0 1500 1500" style="enable-background:new 0 0 1500 1500;" xml:space="preserve">
<style type="text/css">
	.st0{fill:#FCA311;}
	.st1{fill:url(#SVGID_1_);}
</style>
<g>
	<path class="st0" d="M501.5,224c114.6,0,213,66.7,262.3,162.9c60.6-27.6,128.1-43,199.2-43c261,0,473.9,207.7,473.9,465.5
		c0,257.8-212.9,465.5-473.9,465.5H409.2c-190.4,0-346.1-151.6-346.1-340.2c0-122.7,66-229.7,164.3-289.5
		c-14.4-35.9-22.3-75.2-22.3-116.3C205.1,362.3,336.1,224,501.5,224z M300.9,529c0-117.4,91.5-209.5,200.6-209.5
		c77.7,0,146.2,46.5,179.5,115.7c-60,43.7-109.2,101-142.7,167.4c-2.3,4.5-4.5,9.1-6.7,13.7c-4.3-1.6-8.6-3.1-12.9-4.5
		c-34.5-11.3-71.3-17.4-109.5-17.4c-32.4,0-63.9,4.4-93.8,12.7C306.1,583.1,300.9,556.7,300.9,529z"/>
	
		<linearGradient id="SVGID_1_" gradientUnits="userSpaceOnUse" x1="448.6367" y1="1431.7288" x2="974.0007" y2="53.7103" gradientTransform="matrix(1 0 0 -1 0 1502)">
		<stop  offset="0" style="stop-color:#09C6F9"/>
		<stop  offset="1" style="stop-color:#045DE9"/>
	</linearGradient>
	<path class="st1" d="M501.5,224c114.6,0,213,66.7,262.3,162.9c60.6-27.6,128.1-43,199.2-43c261,0,473.9,207.7,473.9,465.5
		c0,257.8-212.9,465.5-473.9,465.5H409.2c-190.4,0-346.1-151.6-346.1-340.2c0-122.7,66-229.7,164.3-289.5
		c-14.4-35.9-22.3-75.2-22.3-116.3C205.1,362.3,336.1,224,501.5,224z M300.9,529c0-117.4,91.5-209.5,200.6-209.5
		c77.7,0,146.2,46.5,179.5,115.7c-60,43.7-109.2,101-142.7,167.4c-2.3,4.5-4.5,9.1-6.7,13.7c-4.3-1.6-8.6-3.1-12.9-4.5
		c-34.5-11.3-71.3-17.4-109.5-17.4c-32.4,0-63.9,4.4-93.8,12.7C306.1,583.1,300.9,556.7,300.9,529z"/>
</g>
</svg>
