<?xml version="1.0" encoding="utf-8"?>
<!-- Generator: Adobe Illustrator 22.0.0, SVG Export Plug-In . SVG Version: 6.00 Build 0)  -->
<svg version="1.1" id="Layer_1" xmlns="http://www.w3.org/2000/svg" xmlns:xlink="http://www.w3.org/1999/xlink" x="0px" y="0px"
	 viewBox="0 0 1500 1500" style="enable-background:new 0 0 1500 1500;" xml:space="preserve">
<style type="text/css">
	.st0{fill:#FCA311;}
	.st1{fill:url(#SVGID_1_);}
</style>
<g>
	<path class="st0" d="M531.5,76.5c143.5-35.7,292.9-35.7,436.5,0c207.3,51.5,369.1,223.1,417.7,442.7c33.7,152.1,33.7,310.4,0,462.6
		c-48.6,219.7-210.5,391.2-417.7,442.7c-143.5,35.7-292.9,35.7-436.5,0c-207.3-51.5-369.1-223.1-417.7-442.7
		c-33.7-152.1-33.7-310.4,0-462.6C162.4,299.5,324.2,128,531.5,76.5z M859.2,595.7c23-9.8,45.8,14.4,36.6,38.7l-57.3,151.9
		c-10,26.5-29.8,47.5-54.9,58.1l-143.3,60.7c-23,9.8-45.8-14.4-36.6-38.7l57.3-151.9c10-26.5,29.8-47.5,54.9-58.1L859.2,595.7z
		 M974.2,667.7c36.8-97.4-54.4-194-146.3-155l-143.3,60.8c-46.5,19.7-83.3,58.7-101.9,108l-57.3,151.9
		c-36.8,97.4,54.4,194,146.3,155L815,927.6c46.5-19.7,83.3-58.7,101.9-108L974.2,667.7z"/>
	
		<linearGradient id="SVGID_1_" gradientUnits="userSpaceOnUse" x1="325.6149" y1="1585.8905" x2="1168.7087" y2="-72.7073" gradientTransform="matrix(1 0 0 -1 0 1502)">
		<stop  offset="0" style="stop-color:#09C6F9"/>
		<stop  offset="1" style="stop-color:#045DE9"/>
	</linearGradient>
	<path class="st1" d="M531.5,76.5c143.5-35.7,292.9-35.7,436.5,0c207.3,51.5,369.1,223.1,417.7,442.7c33.7,152.1,33.7,310.4,0,462.6
		c-48.6,219.7-210.5,391.2-417.7,442.7c-143.5,35.7-292.9,35.7-436.5,0c-207.3-51.5-369.1-223.1-417.7-442.7
		c-33.7-152.1-33.7-310.4,0-462.6C162.4,299.5,324.2,128,531.5,76.5z M859.2,595.7c23-9.8,45.8,14.4,36.6,38.7l-57.3,151.9
		c-10,26.5-29.8,47.5-54.9,58.1l-143.3,60.7c-23,9.8-45.8-14.4-36.6-38.7l57.3-151.9c10-26.5,29.8-47.5,54.9-58.1L859.2,595.7z
		 M974.2,667.7c36.8-97.4-54.4-194-146.3-155l-143.3,60.8c-46.5,19.7-83.3,58.7-101.9,108l-57.3,151.9
		c-36.8,97.4,54.4,194,146.3,155L815,927.6c46.5-19.7,83.3-58.7,101.9-108L974.2,667.7z"/>
</g>
</svg>
