<?xml version="1.0" encoding="utf-8"?>
<!-- Generator: Adobe Illustrator 22.0.0, SVG Export Plug-In . SVG Version: 6.00 Build 0)  -->
<svg version="1.1" id="Layer_1" xmlns="http://www.w3.org/2000/svg" xmlns:xlink="http://www.w3.org/1999/xlink" x="0px" y="0px"
	 viewBox="0 0 1500 1500" style="enable-background:new 0 0 1500 1500;" xml:space="preserve">
<style type="text/css">
	.st0{clip-path:url(#SVGID_2_);}
	.st1{fill:#66C5FF;}
	.st2{opacity:0.6;fill:#FFFFFF;enable-background:new    ;}
	.st3{opacity:0.6;}
	.st4{fill:#FFFFFF;}
	.st5{fill:#24A7FF;}
	.st6{fill:#3BB0FF;}
	.st7{fill:#3D4959;}
	.st8{fill:#D6E0EA;}
	.st9{fill:#EDEDED;}
	.st10{opacity:0.2;fill:#FFFFFF;enable-background:new    ;}
	.st11{fill:#F3F9FF;}
	.st12{fill:#425160;}
	.st13{fill:#41566D;}
	.st14{fill:#E4EFF7;}
	.st15{fill:#DDE9F2;}
	.st16{fill:#55738E;}
</style>
<g>
	<g>
		<defs>
			<rect id="SVGID_1_" x="31" y="198" width="1437" height="1104"/>
		</defs>
		<clipPath id="SVGID_2_">
			<use xlink:href="#SVGID_1_"  style="overflow:visible;"/>
		</clipPath>
		<g class="st0">
			<path class="st1" d="M261.8,485.6c1.8-17.1,7.9-33.6,17.8-47.7c9.9-14.2,23.2-25.6,38.7-33.3c15.5-7.7,32.7-11.3,50-10.5
				c17.3,0.7,34.1,5.8,48.9,14.8c13.4-9.4,29-15.2,45.3-16.9c16.3-1.7,32.8,0.8,47.8,7.3c15.1,6.4,28.2,16.6,38.2,29.6
				c10,12.9,16.5,28.2,18.9,44.3c24.4,5.6,45.9,20,60.3,40.4c14.4,20.4,20.8,45.3,18,70.1S631,631.4,612.3,648
				c-18.7,16.6-42.9,25.8-67.9,25.8H298.9c-22.7,0-44.8-7.8-62.4-22.2c-17.6-14.4-29.6-34.4-33.9-56.6c-4.4-22.2-0.9-45.3,10-65.2
				C223.3,509.7,240.8,494.2,261.8,485.6L261.8,485.6z"/>
			<path class="st2" d="M511.8,563.2c2.4-11.6,2.4-23.7,0-35.3l-13.9-2c-1.6-5.7-3.8-11.1-6.8-16.2l8.4-11.2
				c-6.5-9.9-15-18.4-25-24.9l-11.2,8.3c-5.1-2.9-10.6-5.2-16.3-6.8l-1.9-13.8c-11.7-2.4-23.8-2.4-35.5,0l-2,13.8
				c-5.7,1.6-11.2,3.9-16.3,6.8l-11.2-8.4c-10,6.5-18.5,15-25,24.9l8.4,11.2c-2.9,5.1-5.2,10.6-6.8,16.2l-13.9,2
				c-2.4,11.6-2.4,23.7,0,35.3l13.9,2c1.6,5.7,3.8,11.1,6.8,16.2l-8.4,11.3c6.5,9.9,15.1,18.4,25,24.9l11.2-8.4
				c5.1,2.9,10.6,5.2,16.3,6.7l2,13.9c11.7,2.4,23.8,2.4,35.5,0l2-13.9c5.7-1.6,11.2-3.8,16.3-6.7l11.2,8.4c10-6.5,18.5-15,25-24.9
				l-8.4-11.2c2.9-5.1,5.2-10.6,6.8-16.2L511.8,563.2z M427.3,587.2c-8.2,0-16.3-2.4-23.2-7c-6.9-4.6-12.2-11-15.4-18.6
				c-3.2-7.6-4-15.9-2.4-24c1.6-8.1,5.6-15.5,11.4-21.3c5.8-5.8,13.3-9.8,21.4-11.4c8.1-1.6,16.5-0.8,24.1,2.4
				c7.6,3.1,14.1,8.5,18.7,15.3c4.6,6.8,7,14.9,7,23.1c0,5.4-1.1,10.8-3.2,15.9c-2.1,5-5.2,9.6-9,13.5c-3.9,3.9-8.5,6.9-13.5,9
				C438.2,586.2,432.7,587.2,427.3,587.2z"/>
			<path class="st1" d="M821.3,389.4c1.8-17.1,7.9-33.6,17.8-47.7c9.9-14.2,23.2-25.6,38.7-33.3c15.5-7.7,32.7-11.3,50-10.5
				c17.3,0.7,34.1,5.8,48.9,14.8c13.4-9.4,29-15.2,45.3-16.8c16.3-1.7,32.8,0.8,47.8,7.3c15.1,6.4,28.2,16.6,38.2,29.6
				c10,12.9,16.5,28.2,18.9,44.3c24.4,5.6,45.9,20,60.3,40.4c14.4,20.4,20.8,45.3,18,70.1c-2.9,24.8-14.8,47.7-33.5,64.3
				c-18.7,16.6-42.9,25.8-67.9,25.8H858.3c-22.7,0-44.8-7.9-62.3-22.3c-17.6-14.4-29.6-34.4-33.9-56.6c-4.4-22.2-0.9-45.3,9.9-65.2
				S800.2,398,821.3,389.4L821.3,389.4z"/>
			<g class="st3">
				<path class="st4" d="M939.3,476c0-13.7,7.4-21.4,17.2-21.4s17.2,7.8,17.2,21.4s-7.4,21.4-17.2,21.4S939.3,489.7,939.3,476z
					 M967.7,476c0-10.7-4.6-16.2-11.2-16.2c-6.6,0-11.2,5.4-11.2,16.2c0,10.8,4.6,16.2,11.2,16.2C963.1,492.1,967.7,486.7,967.7,476
					L967.7,476z"/>
				<path class="st4" d="M979.5,476c0-13.7,7.4-21.4,17.3-21.4c9.9,0,17.2,7.8,17.2,21.4s-7.4,21.4-17.2,21.4
					C987,497.3,979.5,489.7,979.5,476z M1008,476c0-10.7-4.6-16.2-11.2-16.2c-6.6,0-11.2,5.4-11.2,16.2c0,10.8,4.6,16.2,11.2,16.2
					C1003.5,492.1,1008,486.7,1008,476z"/>
				<path class="st4" d="M1032.8,454.9V497h-6v-36.9h-9.5v-5.2H1032.8z"/>
				<path class="st4" d="M1042,476c0-13.7,7.4-21.4,17.3-21.4c9.9,0,17.2,7.8,17.2,21.4s-7.4,21.4-17.2,21.4
					C1049.5,497.3,1042,489.7,1042,476z M1070.4,476c0-10.7-4.6-16.2-11.2-16.2c-6.6,0-11.2,5.4-11.2,16.2
					c0,10.8,4.6,16.2,11.2,16.2C1065.9,492.1,1070.4,486.7,1070.4,476z"/>
				<path class="st4" d="M1095.2,454.9V497h-6v-36.9h-9.5v-5.2H1095.2z"/>
				<path class="st4" d="M1104.5,476c0-13.7,7.4-21.4,17.3-21.4c9.9,0,17.2,7.8,17.2,21.4s-7.4,21.4-17.2,21.4
					C1111.9,497.3,1104.5,489.7,1104.5,476z M1132.9,476c0-10.7-4.6-16.2-11.2-16.2s-11.2,5.4-11.2,16.2c0,10.8,4.6,16.2,11.2,16.2
					C1128.4,492.1,1132.9,486.7,1132.9,476z"/>
				<path class="st4" d="M1157.7,454.9V497h-6v-36.9h-9.5v-5.2H1157.7z"/>
			</g>
			<path class="st5" d="M501.6,936.3c0-23.1-7.4-45.6-21.1-64.2c-13.7-18.6-33-32.4-55.2-39.4c-2.2-17.3-8.8-33.7-19.2-47.8
				c-10.4-14-24.2-25.2-40.1-32.5c-15.9-7.2-33.4-10.3-50.9-8.9c-17.5,1.4-34.3,7.2-48.8,16.9c-14.6-9.7-31.4-15.5-48.8-16.8
				c-17.5-1.4-35,1.7-50.9,8.9c-15.9,7.2-29.7,18.4-40.1,32.5c-10.4,14-17,30.5-19.2,47.8c-24.8,7.8-46,24.2-59.8,46.3
				c-13.7,22-19.1,48.2-15.2,73.9c4,25.6,17,49,36.8,65.9c19.8,16.9,44.9,26.2,71,26.2h254.8c28.5-0.6,55.7-12.3,75.6-32.6
				C490.4,991.9,501.6,964.7,501.6,936.3L501.6,936.3z"/>
			<path class="st6" d="M265.4,759.9c-14.6-9.5-31.4-15.1-48.7-16.3c-17.4-1.2-34.8,1.9-50.6,9.2c-15.8,7.3-29.5,18.4-39.8,32.4
				c-10.3,14-16.8,30.4-19,47.6c-24.8,7.8-46,24.2-59.8,46.3c-13.7,22-19.1,48.2-15.2,73.9c4,25.6,17,49,36.8,65.9
				c19.8,16.9,44.9,26.2,71,26.2h76.5L265.4,759.9z"/>
			<path class="st7" d="M532,992H253.6v20.6H532V992z"/>
			<path class="st7" d="M532,892H253.6v20.6H532V892z"/>
			<path class="st8" d="M544.4,1007.5H240c-7.9,0-14.3,6.4-14.3,14.3v64.1c0,7.9,6.4,14.3,14.3,14.3h304.5c7.9,0,14.3-6.4,14.3-14.3
				v-64.1C558.8,1013.9,552.3,1007.5,544.4,1007.5z"/>
			<path class="st9" d="M363.9,1007.5l-15.2,92.6H240c-3.8,0-7.4-1.5-10.1-4.2c-2.7-2.7-4.2-6.3-4.2-10.1v-64.1
				c0-3.8,1.5-7.4,4.2-10.1c2.7-2.7,6.3-4.2,10.1-4.2H363.9z"/>
			<path class="st7" d="M538.3,1079.8v-51.9H246.1v51.9H538.3z"/>
			<path class="st5" d="M515.2,1053.8c0,1.8-0.5,3.5-1.5,5s-2.4,2.6-4,3.3c-1.6,0.7-3.4,0.9-5.2,0.5c-1.7-0.3-3.3-1.2-4.6-2.4
				c-1.3-1.2-2.1-2.8-2.5-4.6c-0.3-1.7-0.2-3.5,0.5-5.2c0.7-1.6,1.8-3,3.3-4c1.5-1,3.2-1.5,5-1.5c2.4,0,4.7,0.9,6.3,2.6
				C514.3,1049.1,515.2,1051.4,515.2,1053.8L515.2,1053.8z"/>
			<path class="st5" d="M476.5,1053.8c0,1.5-0.5,3-1.3,4.3c-0.8,1.3-2,2.2-3.4,2.8c-1.4,0.6-3,0.7-4.4,0.4c-1.5-0.3-2.9-1-3.9-2.1
				c-1.1-1.1-1.8-2.4-2.1-3.9c-0.3-1.5-0.1-3,0.4-4.4c0.6-1.4,1.6-2.6,2.8-3.4c1.3-0.8,2.7-1.3,4.3-1.3c2,0,4,0.8,5.4,2.2
				C475.7,1049.8,476.5,1051.7,476.5,1053.8L476.5,1053.8z"/>
			<path class="st4" d="M439,1053.8c0,1.5-0.5,3-1.3,4.3c-0.8,1.3-2,2.2-3.4,2.8c-1.4,0.6-3,0.7-4.4,0.4c-1.5-0.3-2.9-1-3.9-2.1
				c-1.1-1.1-1.8-2.4-2.1-3.9c-0.3-1.5-0.1-3,0.4-4.4c0.6-1.4,1.6-2.6,2.8-3.4c1.3-0.8,2.7-1.3,4.3-1.3c2,0,4,0.8,5.4,2.2
				S439,1051.7,439,1053.8L439,1053.8z"/>
			<path class="st5" d="M401.5,1053.8c0,1.5-0.5,3-1.3,4.3c-0.8,1.3-2,2.2-3.4,2.8c-1.4,0.6-3,0.7-4.4,0.4c-1.5-0.3-2.9-1-3.9-2.1
				c-1.1-1.1-1.8-2.4-2.1-3.9c-0.3-1.5-0.1-3,0.4-4.4c0.6-1.4,1.6-2.6,2.8-3.4c1.3-0.8,2.7-1.3,4.3-1.3c2,0,4,0.8,5.4,2.2
				C400.7,1049.8,401.5,1051.7,401.5,1053.8L401.5,1053.8z"/>
			<path class="st4" d="M364,1053.8c0,1.5-0.5,3-1.3,4.3c-0.8,1.3-2,2.2-3.4,2.8c-1.4,0.6-3,0.7-4.4,0.4c-1.5-0.3-2.9-1-3.9-2.1
				c-1.1-1.1-1.8-2.4-2.1-3.9c-0.3-1.5-0.1-3,0.4-4.4c0.6-1.4,1.6-2.6,2.8-3.4c1.3-0.8,2.7-1.3,4.3-1.3c2,0,4,0.8,5.4,2.2
				C363.2,1049.8,364,1051.7,364,1053.8L364,1053.8z"/>
			<path class="st8" d="M544.4,905.9H240c-7.9,0-14.3,6.4-14.3,14.3v64.1c0,7.9,6.4,14.3,14.3,14.3h304.5c7.9,0,14.3-6.4,14.3-14.3
				v-64.1C558.8,912.3,552.3,905.9,544.4,905.9z"/>
			<path class="st9" d="M380.5,905.9l-15.1,92.6H240c-3.8,0-7.4-1.5-10.1-4.2c-2.7-2.7-4.2-6.3-4.2-10.1v-64.1
				c0-3.8,1.5-7.4,4.2-10.1c2.7-2.7,6.3-4.2,10.1-4.2H380.5z"/>
			<path class="st7" d="M538.3,978.2v-51.9H246.1v51.9H538.3z"/>
			<path class="st8" d="M544.4,806H240c-7.9,0-14.3,6.4-14.3,14.3v64.1c0,7.9,6.4,14.3,14.3,14.3h304.5c7.9,0,14.3-6.4,14.3-14.3
				v-64.1C558.8,812.4,552.3,806,544.4,806z"/>
			<path class="st9" d="M396.9,806l-15.2,92.6H240c-3.8,0-7.4-1.5-10.1-4.2c-2.7-2.7-4.2-6.3-4.2-10.1v-64.1c0-3.8,1.5-7.4,4.2-10.1
				c2.7-2.7,6.3-4.2,10.1-4.2H396.9z"/>
			<path class="st7" d="M538.3,878.3v-51.9H246.2v51.9H538.3z"/>
			<path class="st5" d="M506.3,961.2c5,0,9-4,9-8.9c0-4.9-4-8.9-9-8.9c-5,0-9,4-9,8.9C497.3,957.2,501.3,961.2,506.3,961.2z"/>
			<path class="st5" d="M476.5,952.3c0,1.5-0.5,3-1.3,4.3c-0.8,1.3-2,2.2-3.4,2.8c-1.4,0.6-3,0.7-4.4,0.4c-1.5-0.3-2.9-1-3.9-2.1
				c-1.1-1.1-1.8-2.4-2.1-3.9c-0.3-1.5-0.1-3,0.4-4.4c0.6-1.4,1.6-2.6,2.8-3.4c1.3-0.8,2.7-1.3,4.3-1.3c2,0,4,0.8,5.4,2.2
				C475.7,948.3,476.5,950.2,476.5,952.3L476.5,952.3z"/>
			<path class="st4" d="M439,952.3c0,1.5-0.5,3-1.3,4.3c-0.8,1.3-2,2.2-3.4,2.8c-1.4,0.6-3,0.7-4.4,0.4c-1.5-0.3-2.9-1-3.9-2.1
				c-1.1-1.1-1.8-2.4-2.1-3.9c-0.3-1.5-0.1-3,0.4-4.4c0.6-1.4,1.6-2.6,2.8-3.4c1.3-0.8,2.7-1.3,4.3-1.3c2,0,4,0.8,5.4,2.2
				C438.2,948.3,439,950.2,439,952.3L439,952.3z"/>
			<path class="st5" d="M401.5,952.3c0,1.5-0.5,3-1.3,4.3c-0.8,1.3-2,2.2-3.4,2.8c-1.4,0.6-3,0.7-4.4,0.4c-1.5-0.3-2.9-1-3.9-2.1
				c-1.1-1.1-1.8-2.4-2.1-3.9c-0.3-1.5-0.1-3,0.4-4.4c0.6-1.4,1.6-2.6,2.8-3.4c1.3-0.8,2.7-1.3,4.3-1.3c2,0,4,0.8,5.4,2.2
				C400.7,948.3,401.5,950.2,401.5,952.3L401.5,952.3z"/>
			<path class="st4" d="M364,952.3c0,1.5-0.5,3-1.3,4.3c-0.8,1.3-2,2.2-3.4,2.8c-1.4,0.6-3,0.7-4.4,0.4c-1.5-0.3-2.9-1-3.9-2.1
				c-1.1-1.1-1.8-2.4-2.1-3.9c-0.3-1.5-0.1-3,0.4-4.4c0.6-1.4,1.6-2.6,2.8-3.4c1.3-0.8,2.7-1.3,4.3-1.3c2,0,4,0.8,5.4,2.2
				C363.2,948.3,364,950.2,364,952.3L364,952.3z"/>
			<path class="st5" d="M515.2,852.4c0,1.8-0.5,3.5-1.5,5c-1,1.5-2.4,2.6-4,3.3c-1.6,0.7-3.4,0.9-5.2,0.5c-1.7-0.3-3.3-1.2-4.6-2.4
				c-1.3-1.3-2.1-2.8-2.5-4.6c-0.3-1.7-0.2-3.5,0.5-5.2c0.7-1.6,1.8-3,3.3-4c1.5-1,3.2-1.5,5-1.5c2.4,0,4.7,0.9,6.3,2.6
				C514.3,847.7,515.2,850,515.2,852.4L515.2,852.4z"/>
			<path class="st4" d="M476.5,852.4c0,1.5-0.5,3-1.3,4.3c-0.8,1.3-2,2.2-3.4,2.8c-1.4,0.6-3,0.7-4.4,0.4c-1.5-0.3-2.9-1-3.9-2.1
				c-1.1-1.1-1.8-2.4-2.1-3.9c-0.3-1.5-0.1-3,0.4-4.4c0.6-1.4,1.6-2.6,2.8-3.4c1.3-0.8,2.7-1.3,4.3-1.3c2,0,4,0.8,5.4,2.2
				C475.7,848.4,476.5,850.3,476.5,852.4L476.5,852.4z"/>
			<path class="st4" d="M439,852.4c0,1.5-0.5,3-1.3,4.3c-0.8,1.3-2,2.2-3.4,2.8c-1.4,0.6-3,0.7-4.4,0.4c-1.5-0.3-2.9-1-3.9-2.1
				c-1.1-1.1-1.8-2.4-2.1-3.9c-0.3-1.5-0.1-3,0.4-4.4c0.6-1.4,1.6-2.6,2.8-3.4c1.3-0.8,2.7-1.3,4.3-1.3c2,0,4,0.8,5.4,2.2
				C438.2,848.4,439,850.3,439,852.4L439,852.4z"/>
			<path class="st5" d="M401.5,852.4c0,1.5-0.5,3-1.3,4.3c-0.8,1.3-2,2.2-3.4,2.8c-1.4,0.6-3,0.7-4.4,0.4c-1.5-0.3-2.9-1-3.9-2.1
				c-1.1-1.1-1.8-2.4-2.1-3.9c-0.3-1.5-0.1-3,0.4-4.4c0.6-1.4,1.6-2.6,2.8-3.4c1.3-0.8,2.7-1.3,4.3-1.3c2,0,4,0.8,5.4,2.2
				C400.7,848.4,401.5,850.3,401.5,852.4L401.5,852.4z"/>
			<path class="st5" d="M364,852.4c0,1.5-0.5,3-1.3,4.3c-0.8,1.3-2,2.2-3.4,2.8c-1.4,0.6-3,0.7-4.4,0.4c-1.5-0.3-2.9-1-3.9-2.1
				c-1.1-1.1-1.8-2.4-2.1-3.9c-0.3-1.5-0.1-3,0.4-4.4c0.6-1.4,1.6-2.6,2.8-3.4c1.3-0.8,2.7-1.3,4.3-1.3c2,0,4,0.8,5.4,2.2
				C363.2,848.4,364,850.3,364,852.4L364,852.4z"/>
			<path class="st5" d="M945.7,959.2c0-18.3-5.8-36-16.6-50.8c-10.8-14.7-26.1-25.6-43.6-31.1c-1.8-13.6-7-26.6-15.2-37.7
				c-8.2-11.1-19.1-19.9-31.7-25.6c-12.6-5.7-26.4-8.1-40.2-7c-13.8,1.1-27,5.7-38.5,13.3c-11.5-7.6-24.8-12.2-38.5-13.3
				c-13.8-1.1-27.6,1.3-40.2,7s-23.5,14.5-31.7,25.6c-8.2,11.1-13.4,24.1-15.2,37.7c-19.6,6.2-36.4,19.1-47.3,36.5
				c-10.9,17.4-15.1,38.1-12,58.4c3.1,20.3,13.4,38.7,29.1,52.1c15.6,13.3,35.5,20.7,56.1,20.7h201.2c22.5-0.5,43.9-9.7,59.7-25.8
				C936.9,1003.2,945.7,981.6,945.7,959.2L945.7,959.2z"/>
			<path class="st6" d="M759.2,819.8c-11.5-7.5-24.8-11.9-38.5-12.9c-13.7-1-27.5,1.5-39.9,7.3c-12.5,5.8-23.3,14.6-31.4,25.6
				c-8.1,11.1-13.3,24-15,37.6c-19.6,6.2-36.4,19.1-47.3,36.5c-10.9,17.4-15.1,38.1-12,58.4c3.1,20.3,13.4,38.7,29.1,52.1
				c15.6,13.3,35.5,20.7,56.1,20.7h60.6L759.2,819.8z"/>
			<path class="st7" d="M899.7,1139.9H621.4v20.6h278.4V1139.9z"/>
			<path class="st7" d="M899.7,1039.9H621.4v20.6h278.4V1039.9z"/>
			<path class="st8" d="M912.2,1155.4H607.7c-7.9,0-14.3,6.4-14.3,14.3v64.1c0,7.9,6.4,14.3,14.3,14.3h304.5
				c7.9,0,14.3-6.4,14.3-14.3v-64.1C926.5,1161.8,920.1,1155.4,912.2,1155.4z"/>
			<path class="st9" d="M731.6,1155.4l-15.2,92.6H607.7c-3.8,0-7.4-1.5-10.1-4.2c-2.7-2.7-4.2-6.3-4.2-10.1v-64.1
				c0-3.8,1.5-7.4,4.2-10.1c2.7-2.7,6.3-4.2,10.1-4.2H731.6z"/>
			<path class="st7" d="M906,1227.7v-51.9H613.8v51.9H906z"/>
			<path class="st5" d="M882.9,1201.7c0,1.8-0.6,3.5-1.6,4.9c-1,1.5-2.4,2.6-4.1,3.2c-1.6,0.7-3.4,0.8-5.2,0.5
				c-1.7-0.4-3.3-1.2-4.6-2.5c-1.2-1.3-2.1-2.8-2.4-4.6c-0.3-1.7-0.1-3.5,0.5-5.1c0.7-1.6,1.8-3,3.3-4c1.5-1,3.2-1.5,5-1.5
				c1.2,0,2.4,0.2,3.5,0.7c1.1,0.5,2.1,1.1,2.9,2c0.8,0.8,1.5,1.8,1.9,2.9C882.7,1199.4,883,1200.6,882.9,1201.7z"/>
			<path class="st5" d="M844.2,1201.7c0,1.5-0.5,3-1.3,4.3c-0.8,1.3-2,2.2-3.4,2.8c-1.4,0.6-3,0.7-4.4,0.4c-1.5-0.3-2.9-1-3.9-2.1
				c-1.1-1.1-1.8-2.4-2.1-3.9c-0.3-1.5-0.1-3,0.4-4.4c0.6-1.4,1.6-2.6,2.8-3.4c1.3-0.8,2.7-1.3,4.3-1.3c2,0,4,0.8,5.4,2.2
				C843.4,1197.8,844.2,1199.7,844.2,1201.7L844.2,1201.7z"/>
			<path class="st4" d="M806.7,1201.7c0,1.5-0.5,3-1.3,4.3c-0.8,1.3-2,2.2-3.4,2.8c-1.4,0.6-3,0.7-4.4,0.4c-1.5-0.3-2.9-1-3.9-2.1
				c-1.1-1.1-1.8-2.4-2.1-3.9c-0.3-1.5-0.1-3,0.4-4.4c0.6-1.4,1.6-2.6,2.8-3.4c1.3-0.8,2.8-1.3,4.3-1.3c2,0,4,0.8,5.4,2.2
				C805.9,1197.8,806.7,1199.7,806.7,1201.7L806.7,1201.7z"/>
			<path class="st5" d="M769.2,1201.7c0,1.5-0.5,3-1.3,4.3c-0.8,1.3-2,2.2-3.4,2.8c-1.4,0.6-3,0.7-4.4,0.4c-1.5-0.3-2.9-1-3.9-2.1
				c-1.1-1.1-1.8-2.4-2.1-3.9c-0.3-1.5-0.1-3,0.4-4.4c0.6-1.4,1.6-2.6,2.8-3.4c1.3-0.8,2.7-1.3,4.3-1.3c2,0,4,0.8,5.4,2.2
				C768.4,1197.8,769.2,1199.7,769.2,1201.7L769.2,1201.7z"/>
			<path class="st4" d="M731.6,1201.7c0,1.5-0.4,3-1.3,4.3c-0.8,1.3-2,2.2-3.4,2.8c-1.4,0.6-3,0.7-4.4,0.4c-1.5-0.3-2.9-1-3.9-2.1
				c-1.1-1.1-1.8-2.4-2.1-3.9c-0.3-1.5-0.1-3,0.4-4.4c0.6-1.4,1.6-2.6,2.8-3.4c1.3-0.8,2.8-1.3,4.3-1.3c2,0,4,0.8,5.4,2.2
				C730.8,1197.8,731.6,1199.7,731.6,1201.7L731.6,1201.7z"/>
			<path class="st8" d="M912.2,1053.8H607.7c-7.9,0-14.3,6.4-14.3,14.3v64.1c0,7.9,6.4,14.3,14.3,14.3h304.5
				c7.9,0,14.3-6.4,14.3-14.3v-64.1C926.5,1060.2,920.1,1053.8,912.2,1053.8z"/>
			<path class="st9" d="M748.2,1053.8l-15.1,92.6H607.7c-3.8,0-7.4-1.5-10.1-4.2c-2.7-2.7-4.2-6.3-4.2-10.1V1068
				c0-3.8,1.5-7.4,4.2-10.1c2.7-2.7,6.3-4.2,10.1-4.2H748.2z"/>
			<path class="st7" d="M906,1126.1v-51.9H613.8v51.9H906z"/>
			<path class="st8" d="M912.2,953.9H607.7c-7.9,0-14.3,6.4-14.3,14.3v64.1c0,7.9,6.4,14.3,14.3,14.3h304.5
				c7.9,0,14.3-6.4,14.3-14.3v-64.1C926.5,960.3,920.1,953.9,912.2,953.9z"/>
			<path class="st9" d="M764.6,954.1l-15.1,92.6H607.7c-3.8,0-7.4-1.5-10.1-4.2c-2.7-2.7-4.2-6.3-4.2-10.1v-64.1
				c0-3.8,1.5-7.4,4.2-10.1c2.7-2.7,6.3-4.2,10.1-4.2H764.6z"/>
			<path class="st7" d="M906,1026.2v-51.9H613.8v51.9H906z"/>
			<path class="st5" d="M882.9,1100.1c0,1.8-0.5,3.5-1.5,5c-1,1.5-2.4,2.6-4,3.3c-1.6,0.7-3.4,0.9-5.2,0.5s-3.3-1.2-4.6-2.4
				c-1.3-1.2-2.1-2.8-2.5-4.6c-0.3-1.7-0.2-3.5,0.5-5.2c0.7-1.6,1.8-3,3.3-4c1.5-1,3.2-1.5,5-1.5c1.2,0,2.4,0.2,3.4,0.7
				c1.1,0.4,2.1,1.1,2.9,1.9s1.5,1.8,1.9,2.9C882.7,1097.7,882.9,1098.9,882.9,1100.1z"/>
			<path class="st5" d="M844.2,1100.1c0,1.5-0.5,3-1.3,4.3c-0.8,1.3-2,2.2-3.4,2.8c-1.4,0.6-3,0.7-4.4,0.4c-1.5-0.3-2.9-1-3.9-2.1
				c-1.1-1.1-1.8-2.4-2.1-3.9c-0.3-1.5-0.1-3,0.4-4.4c0.6-1.4,1.6-2.6,2.8-3.4s2.7-1.3,4.3-1.3c2,0,4,0.8,5.4,2.2
				C843.4,1096.1,844.2,1098,844.2,1100.1L844.2,1100.1z"/>
			<path class="st4" d="M806.7,1100.1c0,1.5-0.5,3-1.3,4.3c-0.8,1.3-2,2.2-3.4,2.8c-1.4,0.6-3,0.7-4.4,0.4c-1.5-0.3-2.9-1-3.9-2.1
				c-1.1-1.1-1.8-2.4-2.1-3.9c-0.3-1.5-0.1-3,0.4-4.4c0.6-1.4,1.6-2.6,2.8-3.4c1.3-0.8,2.8-1.3,4.3-1.3c2,0,4,0.8,5.4,2.2
				S806.7,1098,806.7,1100.1L806.7,1100.1z"/>
			<path class="st5" d="M769.2,1100.1c0,1.5-0.5,3-1.3,4.3c-0.8,1.3-2,2.2-3.4,2.8c-1.4,0.6-3,0.7-4.4,0.4c-1.5-0.3-2.9-1-3.9-2.1
				c-1.1-1.1-1.8-2.4-2.1-3.9c-0.3-1.5-0.1-3,0.4-4.4c0.6-1.4,1.6-2.6,2.8-3.4c1.3-0.8,2.7-1.3,4.3-1.3c2,0,4,0.8,5.4,2.2
				C768.4,1096.1,769.2,1098,769.2,1100.1L769.2,1100.1z"/>
			<path class="st4" d="M731.6,1100.1c0,1.5-0.4,3-1.3,4.3c-0.8,1.3-2,2.2-3.4,2.8c-1.4,0.6-3,0.7-4.4,0.4c-1.5-0.3-2.9-1-3.9-2.1
				c-1.1-1.1-1.8-2.4-2.1-3.9c-0.3-1.5-0.1-3,0.4-4.4c0.6-1.4,1.6-2.6,2.8-3.4c1.3-0.8,2.8-1.3,4.3-1.3c2,0,4,0.8,5.4,2.2
				C730.8,1096.1,731.6,1098,731.6,1100.1L731.6,1100.1z"/>
			<path class="st5" d="M882.9,1000.4c0,1.8-0.5,3.5-1.5,5c-1,1.5-2.4,2.6-4,3.3c-1.6,0.7-3.4,0.9-5.2,0.5c-1.7-0.3-3.3-1.2-4.6-2.4
				c-1.3-1.3-2.1-2.8-2.5-4.6c-0.3-1.7-0.2-3.5,0.5-5.2c0.7-1.6,1.8-3,3.3-4c1.5-1,3.2-1.5,5-1.5c2.4,0,4.7,0.9,6.3,2.6
				C882,995.7,882.9,998,882.9,1000.4z"/>
			<path class="st4" d="M844.2,1000.4c0,1.5-0.5,3-1.3,4.3c-0.8,1.3-2,2.2-3.4,2.8c-1.4,0.6-3,0.7-4.4,0.4c-1.5-0.3-2.9-1-3.9-2.1
				c-1.1-1.1-1.8-2.4-2.1-3.9c-0.3-1.5-0.1-3,0.4-4.4c0.6-1.4,1.6-2.6,2.8-3.4s2.7-1.3,4.3-1.3c2,0,4,0.8,5.4,2.2
				C843.4,996.4,844.2,998.3,844.2,1000.4L844.2,1000.4z"/>
			<path class="st4" d="M806.7,1000.4c0,1.5-0.5,3-1.3,4.3c-0.8,1.3-2,2.2-3.4,2.8c-1.4,0.6-3,0.7-4.4,0.4c-1.5-0.3-2.9-1-3.9-2.1
				c-1.1-1.1-1.8-2.4-2.1-3.9c-0.3-1.5-0.1-3,0.4-4.4c0.6-1.4,1.6-2.6,2.8-3.4c1.3-0.8,2.8-1.3,4.3-1.3c2,0,4,0.8,5.4,2.2
				C805.9,996.4,806.7,998.3,806.7,1000.4L806.7,1000.4z"/>
			<path class="st5" d="M769.2,1000.4c0,1.5-0.5,3-1.3,4.3c-0.8,1.3-2,2.2-3.4,2.8c-1.4,0.6-3,0.7-4.4,0.4c-1.5-0.3-2.9-1-3.9-2.1
				c-1.1-1.1-1.8-2.4-2.1-3.9c-0.3-1.5-0.1-3,0.4-4.4c0.6-1.4,1.6-2.6,2.8-3.4c1.3-0.8,2.7-1.3,4.3-1.3c2,0,4,0.8,5.4,2.2
				C768.4,996.4,769.2,998.3,769.2,1000.4L769.2,1000.4z"/>
			<path class="st5" d="M731.6,1000.4c0,1.5-0.4,3-1.3,4.3c-0.8,1.3-2,2.2-3.4,2.8c-1.4,0.6-3,0.7-4.4,0.4c-1.5-0.3-2.9-1-3.9-2.1
				c-1.1-1.1-1.8-2.4-2.1-3.9c-0.3-1.5-0.1-3,0.4-4.4c0.6-1.4,1.6-2.6,2.8-3.4c1.3-0.8,2.8-1.3,4.3-1.3c2,0,4,0.8,5.4,2.2
				C730.8,996.4,731.6,998.3,731.6,1000.4L731.6,1000.4z"/>
			<path class="st5" d="M1468,936.3c0-23.1-7.4-45.6-21.1-64.2c-13.7-18.6-33-32.4-55.2-39.4c-2.2-17.3-8.8-33.7-19.2-47.8
				c-10.4-14-24.2-25.2-40.1-32.5c-15.9-7.2-33.4-10.3-50.9-8.9c-17.5,1.4-34.3,7.2-48.8,16.8c-14.6-9.7-31.4-15.5-48.8-16.9
				s-35,1.7-50.9,8.9c-15.9,7.2-29.7,18.4-40.1,32.5c-10.4,14-17,30.5-19.2,47.8c-24.8,7.8-46,24.2-59.8,46.3
				c-13.7,22-19.1,48.2-15.2,73.9c4,25.6,17,49,36.8,65.9c19.8,16.9,44.9,26.2,71,26.2h254.8c28.5-0.6,55.7-12.3,75.6-32.6
				C1456.8,991.9,1468,964.7,1468,936.3L1468,936.3z"/>
			<path class="st6" d="M1231.8,759.9c-14.6-9.5-31.4-15.1-48.7-16.3c-17.4-1.2-34.8,1.9-50.6,9.2c-15.8,7.3-29.5,18.4-39.8,32.4
				c-10.3,14-16.8,30.4-19,47.6c-24.8,7.8-46,24.2-59.8,46.3c-13.7,22-19.1,48.2-15.2,73.9c4,25.6,17,49,36.8,65.9
				c19.8,16.9,44.9,26.2,71,26.2h76.6L1231.8,759.9z"/>
			<path class="st7" d="M1267.4,992H989v20.6h278.4V992z"/>
			<path class="st7" d="M1267.4,892H989v20.6h278.4V892z"/>
			<path class="st8" d="M1279.8,1007.5H975.4c-7.9,0-14.3,6.4-14.3,14.3v64.1c0,7.9,6.4,14.3,14.3,14.3h304.5
				c7.9,0,14.3-6.4,14.3-14.3v-64.1C1294.2,1013.9,1287.8,1007.5,1279.8,1007.5z"/>
			<path class="st9" d="M1099.3,1007.5l-15.2,92.6H975.4c-3.8,0-7.4-1.5-10.1-4.2c-2.7-2.7-4.2-6.3-4.2-10.1v-64.1
				c0-3.8,1.5-7.4,4.2-10.1c2.7-2.7,6.3-4.2,10.1-4.2H1099.3z"/>
			<path class="st7" d="M1273.7,1079.8v-51.9H981.5v51.9H1273.7z"/>
			<path class="st5" d="M1250.6,1053.8c0,1.8-0.5,3.5-1.5,5c-1,1.5-2.4,2.6-4,3.3c-1.6,0.7-3.4,0.9-5.2,0.5
				c-1.7-0.3-3.3-1.2-4.6-2.4c-1.3-1.2-2.1-2.8-2.5-4.6c-0.3-1.7-0.2-3.5,0.5-5.2c0.7-1.6,1.8-3,3.3-4c1.5-1,3.2-1.5,5-1.5
				c2.4,0,4.7,0.9,6.3,2.6C1249.7,1049.1,1250.6,1051.4,1250.6,1053.8z"/>
			<path class="st5" d="M1204.2,1061.5c4.2,0,7.7-3.4,7.7-7.7s-3.4-7.7-7.7-7.7c-4.2,0-7.7,3.4-7.7,7.7S1199.9,1061.5,1204.2,1061.5
				z"/>
			<path class="st4" d="M1174.4,1053.8c0,1.5-0.4,3-1.3,4.3c-0.8,1.3-2,2.2-3.5,2.8c-1.4,0.6-3,0.7-4.4,0.4c-1.5-0.3-2.9-1-3.9-2.1
				c-1.1-1.1-1.8-2.4-2.1-3.9c-0.3-1.5-0.1-3,0.4-4.4c0.6-1.4,1.6-2.6,2.8-3.4c1.3-0.8,2.8-1.3,4.3-1.3c2,0,4,0.8,5.4,2.2
				S1174.4,1051.7,1174.4,1053.8L1174.4,1053.8z"/>
			<path class="st5" d="M1136.9,1053.8c0,1.5-0.4,3-1.3,4.3c-0.8,1.3-2,2.2-3.5,2.8c-1.4,0.6-3,0.7-4.4,0.4c-1.5-0.3-2.9-1-3.9-2.1
				c-1.1-1.1-1.8-2.4-2.1-3.9c-0.3-1.5-0.1-3,0.4-4.4c0.6-1.4,1.6-2.6,2.8-3.4c1.3-0.8,2.8-1.3,4.3-1.3c2,0,4,0.8,5.4,2.2
				C1136.1,1049.8,1136.9,1051.7,1136.9,1053.8L1136.9,1053.8z"/>
			<path class="st4" d="M1099.4,1053.8c0,1.5-0.4,3-1.3,4.3c-0.8,1.3-2,2.2-3.5,2.8c-1.4,0.6-3,0.7-4.4,0.4c-1.5-0.3-2.9-1-3.9-2.1
				c-1.1-1.1-1.8-2.4-2.1-3.9c-0.3-1.5-0.1-3,0.4-4.4c0.6-1.4,1.6-2.6,2.8-3.4c1.3-0.8,2.8-1.3,4.3-1.3c2,0,4,0.8,5.4,2.2
				S1099.4,1051.7,1099.4,1053.8L1099.4,1053.8z"/>
			<path class="st8" d="M1279.8,905.9H975.4c-7.9,0-14.3,6.4-14.3,14.3v64.1c0,7.9,6.4,14.3,14.3,14.3h304.5
				c7.9,0,14.3-6.4,14.3-14.3v-64.1C1294.2,912.3,1287.8,905.9,1279.8,905.9z"/>
			<path class="st9" d="M1115.9,905.9l-15.2,92.6H975.6c-3.8,0-7.4-1.5-10.1-4.2c-2.7-2.7-4.2-6.3-4.2-10.1v-64.1
				c0-3.8,1.5-7.4,4.2-10.1c2.7-2.7,6.3-4.2,10.1-4.2H1115.9z"/>
			<path class="st7" d="M1273.7,978.2v-51.9H981.5v51.9H1273.7z"/>
			<path class="st8" d="M1279.8,806H975.4c-7.9,0-14.3,6.4-14.3,14.3v64.1c0,7.9,6.4,14.3,14.3,14.3h304.5c7.9,0,14.3-6.4,14.3-14.3
				v-64.1C1294.2,812.4,1287.8,806,1279.8,806z"/>
			<path class="st9" d="M1132.2,806l-15.2,92.6H975.4c-3.8,0-7.4-1.5-10.1-4.2c-2.7-2.7-4.2-6.3-4.2-10.1v-64.1
				c0-3.8,1.5-7.4,4.2-10.1c2.7-2.7,6.3-4.2,10.1-4.2H1132.2z"/>
			<path class="st7" d="M1273.7,878.3v-51.9H981.5v51.9H1273.7z"/>
			<path class="st5" d="M1250.6,952.3c0,1.8-0.5,3.5-1.5,5c-1,1.5-2.4,2.6-4,3.3c-1.6,0.7-3.4,0.9-5.2,0.5c-1.7-0.3-3.3-1.2-4.6-2.4
				c-1.3-1.2-2.1-2.8-2.5-4.6c-0.3-1.7-0.2-3.5,0.5-5.2c0.7-1.6,1.8-3,3.3-4c1.5-1,3.2-1.5,5-1.5c2.4,0,4.7,0.9,6.3,2.6
				C1249.7,947.6,1250.6,949.9,1250.6,952.3L1250.6,952.3z"/>
			<path class="st5" d="M1211.9,952.3c0,1.5-0.5,3-1.3,4.3c-0.8,1.3-2,2.2-3.5,2.8c-1.4,0.6-3,0.7-4.4,0.4c-1.5-0.3-2.9-1-3.9-2.1
				c-1.1-1.1-1.8-2.4-2.1-3.9c-0.3-1.5-0.1-3,0.4-4.4c0.6-1.4,1.6-2.6,2.8-3.4c1.3-0.8,2.8-1.3,4.3-1.3c2,0,4,0.8,5.4,2.2
				C1211,948.3,1211.9,950.2,1211.9,952.3L1211.9,952.3z"/>
			<path class="st4" d="M1174.4,952.3c0,1.5-0.4,3-1.3,4.3s-2,2.2-3.5,2.8c-1.4,0.6-3,0.7-4.4,0.4c-1.5-0.3-2.9-1-3.9-2.1
				c-1.1-1.1-1.8-2.4-2.1-3.9c-0.3-1.5-0.1-3,0.4-4.4c0.6-1.4,1.6-2.6,2.8-3.4c1.3-0.8,2.8-1.3,4.3-1.3c2,0,4,0.8,5.4,2.2
				C1173.6,948.3,1174.4,950.2,1174.4,952.3L1174.4,952.3z"/>
			<path class="st5" d="M1136.9,952.3c0,1.5-0.4,3-1.3,4.3c-0.8,1.3-2,2.2-3.5,2.8c-1.4,0.6-3,0.7-4.4,0.4c-1.5-0.3-2.9-1-3.9-2.1
				c-1.1-1.1-1.8-2.4-2.1-3.9c-0.3-1.5-0.1-3,0.4-4.4c0.6-1.4,1.6-2.6,2.8-3.4c1.3-0.8,2.8-1.3,4.3-1.3c2,0,4,0.8,5.4,2.2
				C1136.1,948.3,1136.9,950.2,1136.9,952.3L1136.9,952.3z"/>
			<path class="st4" d="M1099.4,952.3c0,1.5-0.4,3-1.3,4.3c-0.8,1.3-2,2.2-3.5,2.8c-1.4,0.6-3,0.7-4.4,0.4c-1.5-0.3-2.9-1-3.9-2.1
				c-1.1-1.1-1.8-2.4-2.1-3.9c-0.3-1.5-0.1-3,0.4-4.4c0.6-1.4,1.6-2.6,2.8-3.4c1.3-0.8,2.8-1.3,4.3-1.3c2,0,4,0.8,5.4,2.2
				C1098.6,948.3,1099.4,950.2,1099.4,952.3L1099.4,952.3z"/>
			<path class="st5" d="M1250.6,852.4c0,1.8-0.5,3.5-1.5,5c-1,1.5-2.4,2.6-4,3.3c-1.6,0.7-3.4,0.9-5.2,0.5c-1.7-0.3-3.3-1.2-4.6-2.4
				c-1.3-1.3-2.1-2.8-2.5-4.6c-0.3-1.7-0.2-3.5,0.5-5.2c0.7-1.6,1.8-3,3.3-4c1.5-1,3.2-1.5,5-1.5c1.2,0,2.4,0.2,3.4,0.7
				c1.1,0.4,2.1,1.1,2.9,1.9c0.8,0.8,1.5,1.8,1.9,2.9C1250.4,850,1250.6,851.2,1250.6,852.4z"/>
			<path class="st4" d="M1211.9,852.4c0,1.5-0.5,3-1.3,4.3c-0.8,1.3-2,2.2-3.5,2.8c-1.4,0.6-3,0.7-4.4,0.4c-1.5-0.3-2.9-1-3.9-2.1
				c-1.1-1.1-1.8-2.4-2.1-3.9c-0.3-1.5-0.1-3,0.4-4.4c0.6-1.4,1.6-2.6,2.8-3.4c1.3-0.8,2.8-1.3,4.3-1.3c2,0,4,0.8,5.4,2.2
				C1211,848.4,1211.9,850.3,1211.9,852.4L1211.9,852.4z"/>
			<path class="st4" d="M1174.4,852.4c0,1.5-0.4,3-1.3,4.3s-2,2.2-3.5,2.8c-1.4,0.6-3,0.7-4.4,0.4c-1.5-0.3-2.9-1-3.9-2.1
				c-1.1-1.1-1.8-2.4-2.1-3.9c-0.3-1.5-0.1-3,0.4-4.4c0.6-1.4,1.6-2.6,2.8-3.4c1.3-0.8,2.8-1.3,4.3-1.3c2,0,4,0.8,5.4,2.2
				C1173.6,848.4,1174.4,850.3,1174.4,852.4L1174.4,852.4z"/>
			<path class="st5" d="M1136.9,852.4c0,1.5-0.4,3-1.3,4.3c-0.8,1.3-2,2.2-3.5,2.8c-1.4,0.6-3,0.7-4.4,0.4c-1.5-0.3-2.9-1-3.9-2.1
				c-1.1-1.1-1.8-2.4-2.1-3.9c-0.3-1.5-0.1-3,0.4-4.4c0.6-1.4,1.6-2.6,2.8-3.4c1.3-0.8,2.8-1.3,4.3-1.3c2,0,4,0.8,5.4,2.2
				C1136.1,848.4,1136.9,850.3,1136.9,852.4L1136.9,852.4z"/>
			<path class="st5" d="M1099.4,852.4c0,1.5-0.4,3-1.3,4.3c-0.8,1.3-2,2.2-3.5,2.8c-1.4,0.6-3,0.7-4.4,0.4c-1.5-0.3-2.9-1-3.9-2.1
				c-1.1-1.1-1.8-2.4-2.1-3.9c-0.3-1.5-0.1-3,0.4-4.4c0.6-1.4,1.6-2.6,2.8-3.4c1.3-0.8,2.8-1.3,4.3-1.3c2,0,4,0.8,5.4,2.2
				C1098.6,848.4,1099.4,850.3,1099.4,852.4L1099.4,852.4z"/>
			<path class="st6" d="M516.9,198H1003c8.4,0,16.4,3.3,22.3,9.2c5.9,5.9,9.2,13.9,9.2,22.2v290c0,9.9-4,19.4-11,26.4
				c-7,7-16.6,11-26.6,11h-474c-4.9,0-9.8-0.9-14.4-2.8c-4.6-1.9-8.7-4.6-12.2-8.1c-3.5-3.5-6.3-7.6-8.2-12.2
				c-1.9-4.6-2.9-9.4-2.9-14.4v-290c0-4.1,0.8-8.2,2.4-12c1.6-3.8,3.9-7.3,6.9-10.2c2.9-2.9,6.4-5.2,10.3-6.8
				C508.6,198.8,512.7,198,516.9,198L516.9,198z"/>
			<path class="st10" d="M755.1,198H517c-4.1,0-8.2,0.8-12.1,2.4s-7.3,3.9-10.2,6.8c-2.9,2.9-5.2,6.4-6.8,10.2
				c-1.6,3.8-2.4,7.9-2.4,12v290c0,9.9,4,19.4,11,26.4c7,7,16.6,10.9,26.5,10.9h159.5L755.1,198z"/>
			<path class="st8" d="M485.2,257h549.3v327.4c0,8.3-3.3,16.3-9.2,22.2c-5.9,5.9-13.9,9.2-22.3,9.2H516.9c-4.2,0-8.3-0.8-12.1-2.3
				c-3.8-1.6-7.3-3.9-10.3-6.8c-2.9-2.9-5.3-6.4-6.9-10.2c-1.6-3.8-2.4-7.9-2.4-12V257z"/>
			<path class="st11" d="M1019.4,257v327.4c0,2.2-0.4,4.3-1.3,6.4c-0.8,2-2.1,3.8-3.6,5.4c-1.5,1.5-3.4,2.8-5.4,3.6
				c-2,0.8-4.2,1.3-6.4,1.3H516.9c-2.2,0-4.4-0.4-6.4-1.3c-2-0.8-3.9-2.1-5.4-3.6c-1.5-1.5-2.8-3.4-3.6-5.4c-0.8-2-1.3-4.2-1.3-6.4
				V257H1019.4z"/>
			<path class="st12" d="M857.4,498.2v-32.1l-22.2-3.1c-1.7-7.2-4.6-14-8.4-20.3l13.4-17.8l-22.8-22.9l-17.9,13.4
				c-6.3-3.8-13.2-6.7-20.4-8.4l-3.2-22h-32.2l-3.2,22c-7.2,1.7-14.1,4.5-20.4,8.4l-17.9-13.4l-22.9,22.8l13.4,17.8
				c-3.9,6.3-6.7,13.1-8.4,20.3l-22.1,3.1v32.1l22.1,3.2c1.7,7.2,4.5,14.1,8.4,20.4l-13.4,17.8l22.9,22.7l17.9-13.4
				c6.3,3.9,13.1,6.8,20.4,8.5l3.2,22H776l3.2-22c7.2-1.7,14.1-4.5,20.4-8.5l17.9,13.4l22.8-22.7l-13.4-17.8
				c3.8-6.3,6.6-13.1,8.4-20.3L857.4,498.2z M759.9,530.8c-9.7,0-19.1-2.8-27.1-8.2c-8-5.3-14.3-12.9-18-21.8
				c-3.7-8.9-4.7-18.7-2.8-28.1c1.9-9.4,6.5-18.1,13.4-24.9c6.8-6.8,15.5-11.4,25-13.3c9.5-1.9,19.3-0.9,28.2,2.8
				c8.9,3.7,16.5,9.9,21.9,17.9c5.4,8,8.2,17.4,8.2,27c0,6.4-1.3,12.7-3.7,18.6c-2.5,5.9-6.1,11.2-10.6,15.7
				c-4.5,4.5-9.9,8.1-15.8,10.5c-5.9,2.4-12.3,3.7-18.7,3.7V530.8z"/>
			<path class="st7" d="M759.8,530.7c-12.9,0-25.4-5.1-34.5-14.2c-9.2-9.1-14.3-21.5-14.3-34.4s5.1-25.3,14.3-34.4
				c9.2-9.1,21.6-14.2,34.5-14.2V385h-16.1l-3.2,22c-7.2,1.7-14.1,4.5-20.4,8.4L702.3,402l-22.9,22.8l13.4,17.8
				c-3.9,6.3-6.7,13.1-8.4,20.3l-22.1,3.1v32.1l22.1,3.2c1.7,7.2,4.5,14.1,8.4,20.4l-13.4,17.8l22.9,22.7l17.9-13.4
				c6.3,3.9,13.1,6.8,20.4,8.5l3.2,22h16.1V530.7z"/>
			<path class="st13" d="M977.4,368.5v-22.9l-15.8-2.2c-1.2-5.1-3.2-10-6-14.5l9.5-12.6L948.8,300l-12.8,9.5
				c-4.5-2.7-9.4-4.8-14.5-6l-2.3-15.6h-23.2l-2.3,15.6c-5.1,1.2-10,3.2-14.5,6l-12.7-9.5l-16.3,16.3l9.5,12.6
				c-2.8,4.5-4.8,9.3-6,14.5l-15.7,2.2v22.9l15.7,2.2c1.2,5.1,3.2,10,6,14.5l-9.5,12.6l16.3,16.2l12.7-9.5c4.5,2.8,9.4,4.9,14.5,6.1
				l2.3,15.7h23l2.3-15.7c5.1-1.2,10.1-3.2,14.5-6.1l12.8,9.5l16.2-16.2l-9.5-12.7c2.7-4.5,4.7-9.4,6-14.5L977.4,368.5z
				 M907.8,391.7c-6.9,0-13.6-2-19.3-5.8c-5.7-3.8-10.2-9.2-12.8-15.5c-2.6-6.3-3.3-13.3-2-20c1.3-6.7,4.7-12.9,9.5-17.8
				c4.9-4.8,11.1-8.1,17.8-9.5c6.8-1.3,13.8-0.6,20.1,2c6.4,2.6,11.8,7.1,15.6,12.8c3.8,5.7,5.9,12.4,5.8,19.3
				c0,4.5-0.9,9.1-2.6,13.3c-1.7,4.2-4.3,8-7.5,11.2s-7.1,5.8-11.3,7.5C916.9,390.8,912.4,391.7,907.8,391.7L907.8,391.7z"/>
			<path class="st8" d="M692.2,275.1H518.8v14.4h173.4V275.1z"/>
			<path class="st8" d="M692.2,309H518.8v14.4h173.4V309z"/>
			<path class="st8" d="M692.2,342.9H518.8v14.4h173.4V342.9z"/>
			<path class="st8" d="M654.7,376.8H518.8v14.4h135.9V376.8z"/>
			<path class="st8" d="M654.7,410.7H518.8v14.4h135.9V410.7z"/>
			<path class="st4" d="M904.5,228.1c0,2.4-0.7,4.7-2,6.7c-1.3,2-3.2,3.5-5.4,4.5c-2.2,0.9-4.7,1.2-7,0.7c-2.4-0.5-4.5-1.6-6.2-3.3
				c-1.7-1.7-2.9-3.8-3.3-6.2c-0.5-2.3-0.2-4.8,0.7-7c0.9-2.2,2.5-4.1,4.5-5.4c2-1.3,4.3-2,6.7-2c1.6,0,3.2,0.3,4.6,0.9
				c1.5,0.6,2.8,1.5,3.9,2.6c1.1,1.1,2,2.4,2.6,3.9C904.2,224.9,904.5,226.5,904.5,228.1L904.5,228.1z"/>
			<path class="st4" d="M953.9,228.1c0,2.4-0.7,4.7-2,6.7c-1.3,2-3.2,3.5-5.4,4.4s-4.6,1.1-7,0.7c-2.3-0.5-4.5-1.6-6.2-3.3
				c-1.7-1.7-2.8-3.8-3.3-6.2c-0.5-2.3-0.2-4.8,0.7-7c0.9-2.2,2.5-4.1,4.5-5.4c2-1.3,4.3-2,6.7-2c3.2,0,6.3,1.3,8.5,3.5
				C952.6,221.8,953.9,224.9,953.9,228.1z"/>
			<path class="st4" d="M1003.4,228.1c0,2.4-0.7,4.7-2,6.7c-1.3,2-3.2,3.5-5.4,4.4c-2.2,0.9-4.6,1.1-7,0.7c-2.3-0.5-4.5-1.6-6.2-3.3
				c-1.7-1.7-2.8-3.8-3.3-6.2c-0.5-2.3-0.2-4.8,0.7-7c0.9-2.2,2.5-4.1,4.5-5.4c2-1.3,4.3-2,6.7-2c3.2,0,6.3,1.3,8.5,3.5
				C1002.2,221.8,1003.4,224.9,1003.4,228.1z"/>
			<path class="st5" d="M877.2,564.1c0,1.9-0.6,3.8-1.6,5.3c-1.1,1.6-2.6,2.8-4.3,3.5c-1.8,0.7-3.7,0.9-5.6,0.5
				c-1.9-0.4-3.6-1.3-4.9-2.6c-1.3-1.3-2.3-3.1-2.6-4.9c-0.4-1.9-0.2-3.8,0.5-5.6c0.7-1.8,2-3.3,3.6-4.3c1.6-1.1,3.5-1.6,5.4-1.6
				c2.6,0,5,1,6.8,2.8C876.2,559.1,877.2,561.5,877.2,564.1z"/>
			<path class="st5" d="M918.9,564.1c0,1.9-0.6,3.8-1.6,5.4c-1.1,1.6-2.6,2.8-4.3,3.6c-1.8,0.7-3.7,0.9-5.6,0.6
				c-1.9-0.4-3.6-1.3-5-2.6c-1.4-1.3-2.3-3.1-2.7-4.9c-0.4-1.9-0.2-3.8,0.5-5.6c0.7-1.8,2-3.3,3.6-4.3c1.6-1.1,3.5-1.6,5.4-1.6
				c2.6,0,5,1,6.8,2.8C917.9,559.1,918.9,561.5,918.9,564.1L918.9,564.1z"/>
			<path class="st5" d="M964.7,564.1c0,2.7-0.8,5.3-2.3,7.6c-1.5,2.2-3.6,4-6.1,5c-2.5,1-5.2,1.3-7.9,0.8c-2.7-0.5-5.1-1.8-7-3.7
				c-1.9-1.9-3.2-4.3-3.7-7c-0.5-2.6-0.3-5.4,0.8-7.9c1-2.5,2.8-4.6,5-6.1c2.3-1.5,4.9-2.3,7.6-2.3c3.6,0,7.1,1.4,9.6,4
				C963.2,557,964.7,560.5,964.7,564.1L964.7,564.1z"/>
			<path class="st5" d="M1002.5,564.1c0,1.9-0.6,3.8-1.6,5.4c-1.1,1.6-2.6,2.8-4.3,3.6c-1.8,0.7-3.7,0.9-5.6,0.6
				c-1.9-0.4-3.6-1.3-5-2.6c-1.4-1.3-2.3-3.1-2.7-4.9c-0.4-1.9-0.2-3.8,0.5-5.6c0.7-1.8,2-3.3,3.6-4.3c1.6-1.1,3.5-1.6,5.4-1.6
				c2.6,0,5,1,6.8,2.8C1001.4,559.1,1002.4,561.5,1002.5,564.1L1002.5,564.1z"/>
			<path class="st5" d="M536.7,564.1c0,1.9-0.6,3.8-1.6,5.4c-1.1,1.6-2.6,2.8-4.3,3.6c-1.8,0.7-3.7,0.9-5.6,0.6
				c-1.9-0.4-3.6-1.3-5-2.6c-1.4-1.3-2.3-3.1-2.7-4.9c-0.4-1.9-0.2-3.8,0.5-5.6c0.7-1.8,2-3.3,3.6-4.3c1.6-1.1,3.5-1.6,5.4-1.6
				c2.6,0,5,1,6.8,2.8C535.7,559.1,536.7,561.5,536.7,564.1L536.7,564.1z"/>
			<path class="st5" d="M578.5,564.1c0,1.9-0.6,3.8-1.6,5.3c-1.1,1.6-2.6,2.8-4.3,3.5c-1.8,0.7-3.7,0.9-5.6,0.5
				c-1.9-0.4-3.6-1.3-4.9-2.6c-1.3-1.3-2.3-3.1-2.6-4.9c-0.4-1.9-0.2-3.8,0.5-5.6c0.7-1.8,2-3.3,3.6-4.3c1.6-1.1,3.5-1.6,5.4-1.6
				c2.6,0,5,1,6.8,2.8C577.5,559.1,578.5,561.5,578.5,564.1L578.5,564.1z"/>
			<path class="st5" d="M620.2,564.1c0,1.9-0.6,3.8-1.6,5.3c-1.1,1.6-2.6,2.8-4.3,3.5c-1.8,0.7-3.7,0.9-5.6,0.5
				c-1.9-0.4-3.6-1.3-4.9-2.6c-1.3-1.3-2.3-3.1-2.6-4.9c-0.4-1.9-0.2-3.8,0.5-5.6c0.7-1.8,2-3.3,3.6-4.3c1.6-1.1,3.5-1.6,5.4-1.6
				c2.6,0,5,1,6.8,2.8C619.2,559.1,620.2,561.5,620.2,564.1z"/>
			<path class="st5" d="M662,564.1c0,1.9-0.6,3.8-1.6,5.4c-1.1,1.6-2.6,2.8-4.3,3.6c-1.8,0.7-3.7,0.9-5.6,0.6
				c-1.9-0.4-3.6-1.3-5-2.6c-1.4-1.4-2.3-3.1-2.7-5c-0.4-1.9-0.2-3.8,0.6-5.6c0.7-1.8,2-3.3,3.6-4.3c1.6-1.1,3.5-1.6,5.4-1.6
				c2.6,0,5,1,6.8,2.8C661,559.1,662,561.5,662,564.1z"/>
			<path class="st14" d="M450.6,291.2v-26.4l-18.2-2.6c-1.4-5.9-3.7-11.5-6.9-16.6l11-14.5l-18.7-18.7l-14.7,10.9
				c-5.2-3.2-10.8-5.5-16.7-6.9l-2.6-18h-26.5l-2.6,18c-5.9,1.4-11.5,3.7-16.7,6.9l-14.6-10.9l-18.8,18.8l11,14.5
				c-3.2,5.1-5.5,10.7-6.9,16.6l-18.1,2.6v26.4l18.1,2.6c1.4,5.9,3.7,11.6,6.9,16.7l-11,14.5l18.8,18.6l14.6-10.9
				c5.1,3.2,10.8,5.6,16.7,6.9l2.6,18h26.5l2.6-18c5.9-1.4,11.6-3.7,16.7-6.9l14.7,10.9l18.7-18.6l-11-14.6
				c3.1-5.2,5.4-10.8,6.9-16.6L450.6,291.2z M370.6,311c-6.6,0-13-1.9-18.5-5.6c-5.5-3.6-9.7-8.8-12.2-14.8
				c-2.5-6-3.2-12.7-1.9-19.1c1.3-6.4,4.4-12.3,9.1-16.9c4.6-4.6,10.6-7.8,17-9c6.4-1.3,13.1-0.6,19.2,1.9
				c6.1,2.5,11.2,6.8,14.9,12.2c3.6,5.4,5.6,11.8,5.6,18.4c0,4.3-0.9,8.6-2.5,12.6c-1.7,4-4.1,7.6-7.2,10.7
				c-3.1,3.1-6.7,5.5-10.8,7.1C379.3,310.2,375,311,370.6,311L370.6,311z"/>
			<path class="st15" d="M1275.4,655.8v-22.9l-15.7-2.2c-1.2-5-3.2-9.8-6-14.2l9.5-12.6l-16.2-16.2l-12.7,9.5
				c-4.4-2.7-9.3-4.7-14.3-5.9l-2.3-15.6h-23l-2.3,15.6c-5.1,1.2-9.9,3.2-14.3,5.9l-12.6-9.5l-16.3,16.2l9.5,12.6
				c-2.8,4.4-4.8,9.2-6,14.2l-15.7,2.2v22.9l15.7,2.2c1.2,5.1,3.2,10,6,14.5l-9.5,12.6l16.3,16.1l12.6-9.5c4.4,2.8,9.2,4.8,14.3,6.1
				l2.3,15.6h23l2.3-15.6c5.1-1.2,9.9-3.3,14.3-6.1l12.7,9.5l16.2-16.1l-9.5-12.7c2.7-4.4,4.7-9.2,6-14.2L1275.4,655.8z
				 M1206.2,672.9c-5.7,0-11.2-1.7-15.9-4.8c-4.7-3.1-8.4-7.6-10.5-12.8c-2.2-5.2-2.7-10.9-1.6-16.5c1.1-5.5,3.8-10.6,7.8-14.6
				c4-4,9.1-6.7,14.6-7.8c5.5-1.1,11.3-0.5,16.5,1.6c5.2,2.2,9.7,5.8,12.8,10.5c3.1,4.7,4.8,10.2,4.8,15.8c0,7.6-3,14.8-8.4,20.1
				C1221,669.9,1213.8,672.9,1206.2,672.9z"/>
			<path class="st14" d="M1076,1179.3v-15.1l-10.4-1.5c-0.8-3.4-2.1-6.6-4-9.5l6.3-8.3l-10.7-10.7l-8.4,6.3c-2.9-1.8-6.2-3.2-9.5-4
				l-1.5-10.3h-15.2l-1.5,10.3c-3.4,0.8-6.6,2.1-9.6,4l-8.3-6.3l-10.7,10.7l6.3,8.3c-1.9,2.9-3.2,6.1-4,9.5l-10.4,1.5v15.1l10.4,1.5
				c0.8,3.4,2.1,6.6,4,9.6l-6.3,8.3l10.7,10.7l8.3-6.3c2.9,1.9,6.2,3.2,9.6,4l1.5,10.3h15.2l1.5-10.3c3.4-0.8,6.6-2.2,9.5-4l8.3,6.3
				l10.7-10.7l-6.3-8.4c1.8-3,3.1-6.2,4-9.5L1076,1179.3z M1030.2,1190.7c-3.8,0-7.4-1.1-10.6-3.2s-5.6-5-7-8.5
				c-1.4-3.5-1.8-7.3-1.1-11c0.7-3.7,2.5-7.1,5.2-9.7s6.1-4.5,9.7-5.2c3.7-0.7,7.5-0.4,11,1.1c3.5,1.4,6.4,3.9,8.5,7
				c2.1,3.1,3.2,6.8,3.2,10.5c0,2.5-0.5,4.9-1.4,7.2c-1,2.3-2.4,4.4-4.1,6.1c-1.8,1.8-3.9,3.1-6.2,4.1
				C1035.1,1190.2,1032.7,1190.7,1030.2,1190.7L1030.2,1190.7z"/>
			<path class="st15" d="M627.9,1285.6c0-10.4,5.6-16.4,13.2-16.4c7.5,0,13.1,5.9,13.1,16.4c0,10.4-5.6,16.4-13.1,16.4
				C633.6,1302,627.9,1295.9,627.9,1285.6z M649.6,1285.6c0-8.2-3.6-12.3-8.5-12.3c-4.9,0-8.5,4.1-8.5,12.3c0,8.2,3.6,12.3,8.5,12.3
				C646,1297.9,649.5,1293.8,649.6,1285.6L649.6,1285.6z"/>
			<path class="st15" d="M658.6,1285.6c0-10.4,5.6-16.4,13.2-16.4c7.5,0,13.1,5.9,13.1,16.4c0,10.4-5.6,16.4-13.1,16.4
				S658.6,1295.9,658.6,1285.6z M680,1285.6c0-8.2-3.6-12.3-8.5-12.3c-4.9,0-8.6,4.1-8.6,12.3c0,8.2,3.6,12.3,8.6,12.3
				c5,0,8.7-4.1,8.7-12.3H680z"/>
			<path class="st15" d="M699.1,1269.6v32.1h-4.5v-28.1h-7.2v-4L699.1,1269.6z"/>
			<path class="st15" d="M706.2,1285.6c0-10.4,5.6-16.4,13.2-16.4s13.1,5.9,13.1,16.4c0,10.4-5.6,16.4-13.1,16.4
				S706.2,1295.9,706.2,1285.6z M727.8,1285.6c0-8.2-3.6-12.3-8.5-12.3s-8.5,4.1-8.5,12.3c0,8.2,3.6,12.3,8.5,12.3
				S727.8,1293.8,727.8,1285.6z"/>
			<path class="st15" d="M746.7,1269.6v32.1h-4.4v-28.1h-7.2v-4L746.7,1269.6z"/>
			<path class="st15" d="M753.8,1285.6c0-10.4,5.6-16.4,13.2-16.4c7.5,0,13.1,5.9,13.1,16.4c0,10.4-5.6,16.4-13.1,16.4
				C759.4,1302,753.8,1295.9,753.8,1285.6z M775.4,1285.6c0-8.2-3.6-12.3-8.5-12.3c-4.9,0-8.6,4.1-8.6,12.3c0,8.2,3.6,12.3,8.6,12.3
				C771.9,1297.9,775.4,1293.8,775.4,1285.6z"/>
			<path class="st15" d="M794.3,1269.6v32.1h-4.5v-28.1h-7.2v-4L794.3,1269.6z"/>
			<path class="st15" d="M137.9,711.2c0-13.1,7.2-20.6,16.5-20.6c9.4,0,16.5,7.5,16.5,20.6c0,13.1-7.2,20.6-16.5,20.6
				C145.1,731.8,137.9,724.3,137.9,711.2z M165.2,711.2c0-10.3-4.4-15.5-10.7-15.5s-10.7,5.2-10.7,15.5c0,10.3,4.4,15.5,10.7,15.5
				S165.1,721.5,165.2,711.2L165.2,711.2z"/>
			<path class="st15" d="M176.4,711.2c0-13.1,7.2-20.6,16.6-20.6c9.4,0,16.5,7.5,16.5,20.6c0,13.1-7.2,20.6-16.5,20.6
				C183.7,731.8,176.4,724.3,176.4,711.2z M203.6,711.2c0-10.3-4.4-15.5-10.7-15.5c-6.4,0-10.7,5.2-10.7,15.5
				c0,10.3,4.4,15.5,10.7,15.5C199.2,726.7,203.6,721.5,203.6,711.2z"/>
			<path class="st15" d="M227.3,691v40.3h-5.7V696h-9.1v-5H227.3z"/>
			<path class="st15" d="M236.2,711.2c0-13.1,7.2-20.6,16.5-20.6c9.4,0,16.5,7.5,16.5,20.6c0,13.1-7.2,20.6-16.5,20.6
				S236.2,724.3,236.2,711.2z M263.4,711.2c0-10.3-4.4-15.5-10.7-15.5c-6.4,0-10.7,5.2-10.7,15.5c0,10.3,4.4,15.5,10.7,15.5
				C259,726.7,263.4,721.5,263.4,711.2z"/>
			<path class="st15" d="M287.1,691v40.3h-5.7V696h-9.1v-5H287.1z"/>
			<path class="st15" d="M308.6,691v40.3h-5.7V696h-9.2v-5H308.6z"/>
			<path class="st15" d="M317.4,711.2c0-13.1,7.2-20.6,16.5-20.6c9.4,0,16.5,7.5,16.5,20.6c0,13.1-7.2,20.6-16.5,20.6
				C324.6,731.8,317.4,724.3,317.4,711.2z M344.6,711.2c0-10.3-4.4-15.5-10.7-15.5s-10.7,5.2-10.7,15.5c0,10.3,4.4,15.5,10.7,15.5
				C340.2,726.7,344.6,721.5,344.6,711.2L344.6,711.2z"/>
			<path class="st15" d="M356.1,711.2c0-13.1,7.2-20.6,16.5-20.6c9.4,0,16.5,7.5,16.5,20.6c0,13.1-7.2,20.6-16.5,20.6
				C363.3,731.8,356.1,724.3,356.1,711.2z M383.3,711.2c0-10.3-4.4-15.5-10.7-15.5c-6.3,0-10.7,5.2-10.7,15.5
				c0,10.3,4.4,15.5,10.7,15.5c6.3,0,10.6-5.2,10.6-15.5H383.3z"/>
			<path class="st15" d="M394.5,711.2c0-13.1,7.2-20.6,16.5-20.6s16.5,7.5,16.5,20.6c0,13.1-7.2,20.6-16.5,20.6
				C401.7,731.8,394.5,724.3,394.5,711.2z M421.8,711.2c0-10.3-4.4-15.5-10.7-15.5s-10.7,5.2-10.7,15.5c0,10.3,4.4,15.5,10.7,15.5
				C417.4,726.7,421.8,721.5,421.8,711.2z"/>
			<path class="st15" d="M445.5,691v40.3h-5.7V696h-9.1v-5H445.5z"/>
			<path class="st15" d="M454.3,711.2c0-13.1,7.2-20.6,16.5-20.6s16.5,7.5,16.5,20.6c0,13.1-7.2,20.6-16.5,20.6
				S454.3,724.3,454.3,711.2z M481.6,711.2c0-10.3-4.4-15.5-10.7-15.5c-6.3,0-10.7,5.2-10.7,15.5c0,10.3,4.4,15.5,10.7,15.5
				C477.2,726.7,481.6,721.5,481.6,711.2z"/>
			<path class="st15" d="M505.3,691v40.3h-5.7V696h-9.1v-5H505.3z"/>
			<path class="st15" d="M775.6,758.5c0-13.1,7.2-20.6,16.5-20.6c9.4,0,16.5,7.5,16.5,20.6c0,13.1-7.2,20.6-16.5,20.6
				C782.8,779.1,775.6,771.7,775.6,758.5z M802.8,758.5c0-10.3-4.4-15.5-10.7-15.5c-6.3,0-10.7,5.2-10.7,15.5
				c0,10.3,4.4,15.5,10.7,15.5C798.4,774,802.8,768.9,802.8,758.5z"/>
			<path class="st15" d="M826.5,738.4v40.3h-5.7v-35.3h-9.1v-5H826.5z"/>
			<path class="st15" d="M847.9,738.4v40.3h-5.7v-35.3h-9.1v-5H847.9z"/>
			<path class="st15" d="M856.8,758.5c0-13.1,7.2-20.6,16.5-20.6c9.4,0,16.5,7.5,16.5,20.6c0,13.1-7.2,20.6-16.5,20.6
				C864,779.1,856.8,771.7,856.8,758.5z M884,758.5c0-10.3-4.4-15.5-10.7-15.5c-6.3,0-10.7,5.2-10.7,15.5c0,10.3,4.4,15.5,10.7,15.5
				C879.6,774,884,768.9,884,758.5z"/>
			<path class="st15" d="M895.3,758.5c0-13.1,7.2-20.6,16.6-20.6c9.4,0,16.5,7.5,16.5,20.6c0,13.1-7.2,20.6-16.5,20.6
				C902.6,779.1,895.3,771.7,895.3,758.5z M922.6,758.5c0-10.3-4.4-15.5-10.7-15.5c-6.3,0-10.7,5.2-10.7,15.5
				c0,10.3,4.4,15.5,10.7,15.5C918.2,774,922.6,768.9,922.6,758.5z"/>
			<path class="st15" d="M933.9,758.5c0-13.1,7.2-20.6,16.5-20.6s16.5,7.5,16.5,20.6c0,13.1-7.2,20.6-16.5,20.6
				S933.9,771.7,933.9,758.5z M961.2,758.5c0-10.3-4.4-15.5-10.7-15.5c-6.3,0-10.7,5.2-10.7,15.5c0,10.3,4.4,15.5,10.7,15.5
				C956.8,774,961.2,768.9,961.2,758.5z"/>
			<path class="st15" d="M1074.2,275.1c0,1.9-0.6,3.8-1.6,5.3c-1.1,1.6-2.6,2.8-4.3,3.5c-1.8,0.7-3.7,0.9-5.6,0.5
				c-1.9-0.4-3.6-1.3-4.9-2.6c-1.3-1.3-2.3-3.1-2.6-4.9c-0.4-1.9-0.2-3.8,0.5-5.6c0.7-1.8,2-3.3,3.6-4.3c1.6-1.1,3.5-1.6,5.4-1.6
				c2.6,0,5,1,6.8,2.8C1073.2,270.1,1074.2,272.6,1074.2,275.1L1074.2,275.1z"/>
			<path class="st15" d="M1116,275.1c0,1.9-0.6,3.8-1.6,5.4c-1.1,1.6-2.6,2.8-4.3,3.6c-1.8,0.7-3.7,0.9-5.6,0.6
				c-1.9-0.4-3.6-1.3-5-2.6c-1.4-1.4-2.3-3.1-2.7-5c-0.4-1.9-0.2-3.8,0.6-5.6c0.7-1.8,2-3.3,3.6-4.3c1.6-1.1,3.5-1.6,5.4-1.6
				c2.6,0,5,1,6.8,2.8C1115,270.1,1116,272.6,1116,275.1L1116,275.1z"/>
			<path class="st15" d="M1161.8,275.1c0,2.7-0.8,5.3-2.3,7.6c-1.5,2.2-3.6,4-6.1,5c-2.5,1-5.2,1.3-7.9,0.8c-2.6-0.5-5.1-1.8-7-3.7
				c-1.9-1.9-3.2-4.3-3.7-7c-0.5-2.6-0.3-5.4,0.8-7.9c1-2.5,2.8-4.6,5-6.1c2.2-1.5,4.9-2.3,7.6-2.3c3.6,0,7.1,1.4,9.7,4
				S1161.8,271.5,1161.8,275.1z"/>
			<path class="st15" d="M1199.5,275.1c0,1.9-0.6,3.8-1.6,5.4c-1.1,1.6-2.6,2.8-4.3,3.6c-1.8,0.7-3.7,0.9-5.6,0.6
				c-1.9-0.4-3.6-1.3-5-2.6c-1.4-1.4-2.3-3.1-2.7-5s-0.2-3.8,0.6-5.6c0.7-1.8,2-3.3,3.6-4.3c1.6-1.1,3.5-1.6,5.4-1.6
				c2.6,0,5,1,6.8,2.8C1198.5,270.1,1199.5,272.6,1199.5,275.1L1199.5,275.1z"/>
			<path class="st15" d="M498.4,1139.9c0-1.9,0.6-3.8,1.6-5.4c1.1-1.6,2.6-2.8,4.3-3.6c1.8-0.7,3.7-0.9,5.6-0.6
				c1.9,0.4,3.6,1.3,5,2.6c1.4,1.3,2.3,3.1,2.7,4.9c0.4,1.9,0.2,3.8-0.5,5.6c-0.7,1.8-2,3.3-3.6,4.3c-1.6,1.1-3.5,1.6-5.4,1.6
				c-1.3,0-2.5-0.2-3.7-0.7c-1.2-0.5-2.2-1.2-3.1-2.1c-0.9-0.9-1.6-2-2.1-3.1C498.7,1142.4,498.4,1141.1,498.4,1139.9L498.4,1139.9z
				"/>
			<path class="st15" d="M456.7,1139.9c0-1.9,0.6-3.8,1.6-5.3c1.1-1.6,2.6-2.8,4.3-3.5c1.8-0.7,3.7-0.9,5.6-0.5
				c1.9,0.4,3.6,1.3,4.9,2.6c1.3,1.3,2.3,3.1,2.6,4.9c0.4,1.9,0.2,3.8-0.5,5.6c-0.7,1.8-2,3.3-3.6,4.3c-1.6,1.1-3.5,1.6-5.4,1.6
				c-2.6,0-5-1-6.8-2.8C457.7,1144.9,456.7,1142.4,456.7,1139.9z"/>
			<path class="st15" d="M411,1139.9c0-2.7,0.8-5.3,2.3-7.6c1.5-2.2,3.6-4,6.1-5c2.5-1,5.2-1.3,7.9-0.8c2.6,0.5,5.1,1.8,7,3.7
				c1.9,1.9,3.2,4.3,3.7,7c0.5,2.6,0.3,5.4-0.8,7.9c-1,2.5-2.8,4.6-5,6.1c-2.2,1.5-4.9,2.3-7.6,2.3c-3.6,0-7.1-1.4-9.7-4
				C412.4,1146.9,411,1143.5,411,1139.9L411,1139.9z"/>
			<path class="st15" d="M373.2,1139.9c0-1.9,0.6-3.8,1.6-5.4c1.1-1.6,2.6-2.8,4.3-3.6c1.8-0.7,3.7-0.9,5.6-0.6s3.6,1.3,5,2.6
				c1.4,1.4,2.3,3.1,2.7,4.9c0.4,1.9,0.2,3.8-0.6,5.6c-0.7,1.8-2,3.3-3.6,4.3c-1.6,1.1-3.5,1.6-5.4,1.6c-2.6,0-5-1-6.8-2.8
				C374.2,1144.9,373.2,1142.4,373.2,1139.9z"/>
			<path class="st16" d="M998,787.3h-16.4v9.6H998V787.3z"/>
			<path class="st16" d="M998,769.2h-16.4v9.7H998V769.2z"/>
			<path class="st16" d="M998,751.1h-16.4v9.7H998V751.1z"/>
			<path class="st16" d="M998,732.9h-16.4v9.7H998V732.9z"/>
			<path class="st16" d="M998,714.8h-16.4v9.7H998V714.8z"/>
			<path class="st16" d="M998,696.7h-16.4v9.7H998V696.7z"/>
			<path class="st16" d="M998,678.6h-16.4v9.7H998V678.6z"/>
			<path class="st16" d="M998,660.4h-16.4v9.6H998V660.4z"/>
			<path class="st16" d="M998,642.3h-16.4v9.6H998V642.3z"/>
			<path class="st16" d="M998,624.2h-16.4v9.6H998V624.2z"/>
			<path class="st16" d="M768.1,787.3h-16.4v9.6h16.4V787.3z"/>
			<path class="st16" d="M768.1,769.2h-16.4v9.7h16.4V769.2z"/>
			<path class="st16" d="M768.1,751.1h-16.4v9.7h16.4V751.1z"/>
			<path class="st16" d="M768.1,732.9h-16.4v9.7h16.4V732.9z"/>
			<path class="st16" d="M768.1,714.8h-16.4v9.7h16.4V714.8z"/>
			<path class="st16" d="M768.1,696.7h-16.4v9.7h16.4V696.7z"/>
			<path class="st16" d="M768.1,678.6h-16.4v9.7h16.4V678.6z"/>
			<path class="st16" d="M768.1,660.4h-16.4v9.6h16.4V660.4z"/>
			<path class="st16" d="M768.1,642.3h-16.4v9.6h16.4V642.3z"/>
			<path class="st16" d="M768.1,624.2h-16.4v9.6h16.4V624.2z"/>
			<path class="st16" d="M538.3,787.3h-16.4v9.6h16.4V787.3z"/>
			<path class="st16" d="M538.3,769.2h-16.4v9.7h16.4V769.2z"/>
			<path class="st16" d="M538.3,751.1h-16.4v9.7h16.4V751.1z"/>
			<path class="st16" d="M538.3,732.9h-16.4v9.7h16.4V732.9z"/>
			<path class="st16" d="M538.3,714.8h-16.4v9.7h16.4V714.8z"/>
			<path class="st16" d="M538.3,696.7h-16.4v9.7h16.4V696.7z"/>
			<path class="st16" d="M538.3,678.6h-16.4v9.7h16.4V678.6z"/>
			<path class="st16" d="M538.3,660.4h-16.4v9.6h16.4V660.4z"/>
			<path class="st16" d="M538.3,642.3h-16.4v9.6h16.4V642.3z"/>
			<path class="st16" d="M538.3,624.2h-16.4v9.6h16.4V624.2z"/>
		</g>
	</g>
</g>
</svg>
