<?xml version="1.0" encoding="utf-8"?>
<!-- Generator: Adobe Illustrator 22.0.0, SVG Export Plug-In . SVG Version: 6.00 Build 0)  -->
<svg version="1.1" id="Layer_1" xmlns="http://www.w3.org/2000/svg" xmlns:xlink="http://www.w3.org/1999/xlink" x="0px" y="0px"
	 viewBox="0 0 1500 1500" style="enable-background:new 0 0 1500 1500;" xml:space="preserve">
<style type="text/css">
	.st0{fill:#FCA311;}
	.st1{fill:url(#SVGID_1_);}
	.st2{fill:url(#SVGID_2_);}
	.st3{fill:url(#SVGID_3_);}
	.st4{fill:url(#SVGID_4_);}
</style>
<g>
	<path class="st0" d="M463.3,60.2c-63.9-16.2-130.5-16.2-194.4,0C185.2,81.4,119.9,152,100.2,242.5c-15,69.1-15,141,0,210.1
		c19.6,90.5,85,161.2,168.7,182.4c63.9,16.2,130.5,16.2,194.4,0c83.7-21.2,149.1-91.9,168.7-182.4c15-69.1,15-141,0-210.1
		C612.4,152,547.1,81.4,463.3,60.2z"/>
	
		<linearGradient id="SVGID_1_" gradientUnits="userSpaceOnUse" x1="184.1719" y1="1512.4263" x2="1024.3617" y2="-140.4585" gradientTransform="matrix(1 0 0 -1 0 1502)">
		<stop  offset="0" style="stop-color:#09C6F9"/>
		<stop  offset="1" style="stop-color:#045DE9"/>
	</linearGradient>
	<path class="st1" d="M463.3,60.2c-63.9-16.2-130.5-16.2-194.4,0C185.2,81.4,119.9,152,100.2,242.5c-15,69.1-15,141,0,210.1
		c19.6,90.5,85,161.2,168.7,182.4c63.9,16.2,130.5,16.2,194.4,0c83.7-21.2,149.1-91.9,168.7-182.4c15-69.1,15-141,0-210.1
		C612.4,152,547.1,81.4,463.3,60.2z"/>
	<path class="st0" d="M463.3,864c-63.9-16.2-130.5-16.2-194.4,0c-83.7,21.2-149.1,91.9-168.7,182.4c-15,69.1-15,141,0,210.1
		c19.6,90.5,85,161.1,168.7,182.4c63.9,16.2,130.5,16.2,194.4,0c83.7-21.2,149.1-91.9,168.7-182.4c15-69.1,15-141,0-210.1
		C612.4,955.9,547.1,885.2,463.3,864z"/>
	
		<linearGradient id="SVGID_2_" gradientUnits="userSpaceOnUse" x1="-134.9881" y1="1336.4547" x2="705.2017" y2="-316.43" gradientTransform="matrix(1 0 0 -1 0 1502)">
		<stop  offset="0" style="stop-color:#09C6F9"/>
		<stop  offset="1" style="stop-color:#045DE9"/>
	</linearGradient>
	<path class="st2" d="M463.3,864c-63.9-16.2-130.5-16.2-194.4,0c-83.7,21.2-149.1,91.9-168.7,182.4c-15,69.1-15,141,0,210.1
		c19.6,90.5,85,161.1,168.7,182.4c63.9,16.2,130.5,16.2,194.4,0c83.7-21.2,149.1-91.9,168.7-182.4c15-69.1,15-141,0-210.1
		C612.4,955.9,547.1,885.2,463.3,864z"/>
	<path class="st0" d="M1207.1,60.2c-63.9-16.2-130.5-16.2-194.4,0C928.9,81.4,863.6,152,843.9,242.5c-15,69.1-15,141,0,210.1
		c19.6,90.5,85,161.2,168.7,182.4c63.9,16.2,130.5,16.2,194.4,0c83.7-21.2,149.1-91.9,168.7-182.4c15-69.1,15-141,0-210.1
		C1356.1,152,1290.8,81.4,1207.1,60.2z"/>
	
		<linearGradient id="SVGID_3_" gradientUnits="userSpaceOnUse" x1="765.6399" y1="1831.5781" x2="1605.8297" y2="178.6934" gradientTransform="matrix(1 0 0 -1 0 1502)">
		<stop  offset="0" style="stop-color:#09C6F9"/>
		<stop  offset="1" style="stop-color:#045DE9"/>
	</linearGradient>
	<path class="st3" d="M1207.1,60.2c-63.9-16.2-130.5-16.2-194.4,0C928.9,81.4,863.6,152,843.9,242.5c-15,69.1-15,141,0,210.1
		c19.6,90.5,85,161.2,168.7,182.4c63.9,16.2,130.5,16.2,194.4,0c83.7-21.2,149.1-91.9,168.7-182.4c15-69.1,15-141,0-210.1
		C1356.1,152,1290.8,81.4,1207.1,60.2z"/>
	<path class="st0" d="M1207.1,864c-63.9-16.2-130.5-16.2-194.4,0c-83.7,21.2-149.1,91.9-168.7,182.4c-15,69.1-15,141,0,210.1
		c19.6,90.5,85,161.1,168.7,182.4c63.9,16.2,130.5,16.2,194.4,0c83.7-21.2,149.1-91.9,168.7-182.4c15-69.1,15-141,0-210.1
		C1356.1,955.9,1290.8,885.2,1207.1,864z"/>
	
		<linearGradient id="SVGID_4_" gradientUnits="userSpaceOnUse" x1="446.4799" y1="1655.6066" x2="1286.6697" y2="2.7218" gradientTransform="matrix(1 0 0 -1 0 1502)">
		<stop  offset="0" style="stop-color:#09C6F9"/>
		<stop  offset="1" style="stop-color:#045DE9"/>
	</linearGradient>
	<path class="st4" d="M1207.1,864c-63.9-16.2-130.5-16.2-194.4,0c-83.7,21.2-149.1,91.9-168.7,182.4c-15,69.1-15,141,0,210.1
		c19.6,90.5,85,161.1,168.7,182.4c63.9,16.2,130.5,16.2,194.4,0c83.7-21.2,149.1-91.9,168.7-182.4c15-69.1,15-141,0-210.1
		C1356.1,955.9,1290.8,885.2,1207.1,864z"/>
</g>
</svg>
