<?xml version="1.0" encoding="utf-8"?>
<!-- Generator: Adobe Illustrator 22.0.0, SVG Export Plug-In . SVG Version: 6.00 Build 0)  -->
<svg version="1.1" id="Layer_1" xmlns="http://www.w3.org/2000/svg" xmlns:xlink="http://www.w3.org/1999/xlink" x="0px" y="0px"
	 viewBox="0 0 1500 1500" style="enable-background:new 0 0 1500 1500;" xml:space="preserve">
<style type="text/css">
	.st0{fill:#FCA311;}
	.st1{fill:url(#SVGID_1_);}
</style>
<g>
	<path class="st0" d="M941.5,1068.9l-31.6,7v42.5c0,72.8-45.3,134.7-108.4,157.6v114.3c0,30.8-24.3,55.7-54.2,55.7
		c-30,0-54.2-24.9-54.2-55.7V1276c-63.2-23-108.4-84.9-108.4-157.6V1079c-4.7-1-9.4-2-14.1-3l-32-7.1
		c-156.1-34.8-279.6-157.3-318.9-316.4c-29-117.2-29-240.1,0-357.3c39.3-159.1,162.8-281.6,318.9-316.4l32-7.1
		c111.7-24.9,227.3-24.9,339,0l32,7.1c156.1,34.8,279.6,157.3,318.9,316.4c29,117.2,29,240,0,357.3
		C1221.1,911.6,1097.6,1034.1,941.5,1068.9z M801.5,1092.2c-6.3,0.5-12.6,0.9-18.9,1.3c-29.8,1.6-59.7,1.6-89.6-0.3v25.1
		c0,30.8,24.3,55.7,54.2,55.7c29.9,0,54.2-25,54.2-55.7V1092.2z M803.3,352.5c18.7,15.4,21.8,43.4,6.8,62.6l-88.2,113.3h126.6
		c16.7,0,31.9,9.8,39.1,25.3c7.2,15.4,5.2,33.8-5.2,47.2L737.8,786.6c-15,19.2-42.3,22.3-61,7c-18.7-15.4-21.7-43.4-6.8-62.7
		l88.2-113.3H631.6c-16.7,0-31.9-9.8-39.1-25.3c-7.2-15.4-5.2-33.8,5.2-47.2l144.6-185.7C757.3,340.2,784.6,337.1,803.3,352.5z"/>
	
		<linearGradient id="SVGID_1_" gradientUnits="userSpaceOnUse" x1="339.5568" y1="1548.0599" x2="1295.5867" y2="68.1234" gradientTransform="matrix(1 0 0 -1 0 1502)">
		<stop  offset="0" style="stop-color:#09C6F9"/>
		<stop  offset="1" style="stop-color:#045DE9"/>
	</linearGradient>
	<path class="st1" d="M941.5,1068.9l-31.6,7v42.5c0,72.8-45.3,134.7-108.4,157.6v114.3c0,30.8-24.3,55.7-54.2,55.7
		c-30,0-54.2-24.9-54.2-55.7V1276c-63.2-23-108.4-84.9-108.4-157.6V1079c-4.7-1-9.4-2-14.1-3l-32-7.1
		c-156.1-34.8-279.6-157.3-318.9-316.4c-29-117.2-29-240.1,0-357.3c39.3-159.1,162.8-281.6,318.9-316.4l32-7.1
		c111.7-24.9,227.3-24.9,339,0l32,7.1c156.1,34.8,279.6,157.3,318.9,316.4c29,117.2,29,240,0,357.3
		C1221.1,911.6,1097.6,1034.1,941.5,1068.9z M801.5,1092.2c-6.3,0.5-12.6,0.9-18.9,1.3c-29.8,1.6-59.7,1.6-89.6-0.3v25.1
		c0,30.8,24.3,55.7,54.2,55.7c29.9,0,54.2-25,54.2-55.7V1092.2z M803.3,352.5c18.7,15.4,21.8,43.4,6.8,62.6l-88.2,113.3h126.6
		c16.7,0,31.9,9.8,39.1,25.3c7.2,15.4,5.2,33.8-5.2,47.2L737.8,786.6c-15,19.2-42.3,22.3-61,7c-18.7-15.4-21.7-43.4-6.8-62.7
		l88.2-113.3H631.6c-16.7,0-31.9-9.8-39.1-25.3c-7.2-15.4-5.2-33.8,5.2-47.2l144.6-185.7C757.3,340.2,784.6,337.1,803.3,352.5z"/>
</g>
</svg>
