<?xml version="1.0" encoding="utf-8"?>
<!-- Generator: Adobe Illustrator 22.0.0, SVG Export Plug-In . SVG Version: 6.00 Build 0)  -->
<svg version="1.1" id="Layer_1" xmlns="http://www.w3.org/2000/svg" xmlns:xlink="http://www.w3.org/1999/xlink" x="0px" y="0px"
	 viewBox="0 0 1500 500" style="enable-background:new 0 0 1500 500;" xml:space="preserve">
<style type="text/css">
	.st0{fill:#FCA311;}
	.st1{fill:url(#SVGID_1_);}
	.st2{fill:#FFFFFF;}
	.st3{fill:url(#SVGID_2_);}
	.st4{fill:url(#SVGID_3_);}
	.st5{fill:url(#SVGID_4_);}
</style>
<g>
	<ellipse class="st0" cx="946.1" cy="250" rx="156.8" ry="162"/>
	
		<linearGradient id="SVGID_1_" gradientUnits="userSpaceOnUse" x1="847.3808" y1="446.1063" x2="1043.5155" y2="60.2655" gradientTransform="matrix(1 0 0 -1 0 502)">
		<stop  offset="0" style="stop-color:#09C6F9"/>
		<stop  offset="1" style="stop-color:#045DE9"/>
	</linearGradient>
	<ellipse class="st1" cx="946.1" cy="250" rx="156.8" ry="162"/>
	<path class="st2" d="M898.9,290.5v-30.3l-27.6-54.8h17.1l18.2,39.2l18.1-39.2h16.8L914,260.2v30.3H898.9z M970.3,290.5V218h-24
		v-12.5h63.2V218h-24.1v72.5H970.3z"/>
</g>
<g>
	<ellipse class="st0" cx="1338.2" cy="250" rx="156.8" ry="162"/>
	
		<linearGradient id="SVGID_2_" gradientUnits="userSpaceOnUse" x1="1239.4827" y1="446.1063" x2="1435.6174" y2="60.2655" gradientTransform="matrix(1 0 0 -1 0 502)">
		<stop  offset="0" style="stop-color:#09C6F9"/>
		<stop  offset="1" style="stop-color:#045DE9"/>
	</linearGradient>
	<ellipse class="st3" cx="1338.2" cy="250" rx="156.8" ry="162"/>
	<path class="st2" d="M1298.2,290.5v-85.1h15.1v72.9h36.5v12.2H1298.2z M1363,290.5v-85.1h15.1v85.1H1363z"/>
</g>
<g>
	<ellipse class="st0" cx="553.9" cy="250" rx="156.8" ry="162"/>
	
		<linearGradient id="SVGID_3_" gradientUnits="userSpaceOnUse" x1="455.2789" y1="446.1063" x2="651.4136" y2="60.2655" gradientTransform="matrix(1 0 0 -1 0 502)">
		<stop  offset="0" style="stop-color:#09C6F9"/>
		<stop  offset="1" style="stop-color:#045DE9"/>
	</linearGradient>
	<ellipse class="st4" cx="553.9" cy="250" rx="156.8" ry="162"/>
	<path class="st2" d="M493.3,290.5v-85.1h15.1v85.1H493.3z M560.3,292c-7.8,0-14.5-1.8-20.4-5.5c-5.8-3.6-10.3-8.7-13.5-15.2
		c-3.2-6.6-4.8-14.2-4.8-22.8c0-8.7,1.6-16.4,4.9-23.1c3.4-6.7,8.1-11.9,14.2-15.7c6.2-3.8,13.5-5.7,22-5.7c9.6,0,17.6,2.4,24,7.2
		c6.4,4.8,10.5,11.4,12.4,19.8h-16.8c-1.3-4-3.5-7-6.8-9.2c-3.3-2.3-7.5-3.4-12.7-3.4c-8.2,0-14.6,2.7-19.1,8.1
		c-4.5,5.3-6.7,12.7-6.7,22.1c0,9.4,2.2,16.7,6.6,21.9c4.5,5.1,10.5,7.7,18.1,7.7c7.5,0,13.1-2.1,16.8-6.2c3.8-4.2,6.2-9.7,6.9-16.5
		h-20.8v-11.7h36v46.8h-13.9l-1.2-11.2c-2.7,4.1-6,7.2-10,9.4C571.6,290.9,566.5,292,560.3,292z"/>
</g>
<g>
	<ellipse class="st0" cx="161.8" cy="250" rx="156.8" ry="162"/>
	
		<linearGradient id="SVGID_4_" gradientUnits="userSpaceOnUse" x1="63.177" y1="446.1063" x2="259.3116" y2="60.2655" gradientTransform="matrix(1 0 0 -1 0 502)">
		<stop  offset="0" style="stop-color:#09C6F9"/>
		<stop  offset="1" style="stop-color:#045DE9"/>
	</linearGradient>
	<ellipse class="st5" cx="161.8" cy="250" rx="156.8" ry="162"/>
	<path class="st2" d="M91.4,290.5v-85.1h53.2V218h-38.1v23.8h30.8v12.3h-30.8v36.4H91.4z M156.2,290.5v-85.1h33.1
		c8.5,0,15.1,2.1,19.5,6.2c4.5,4.1,6.8,9.3,6.8,15.7c0,5.3-1.4,9.6-4.2,12.9c-2.7,3.2-6.1,5.3-10.1,6.4c4.7,1,8.6,3.4,11.6,7.3
		c3.1,3.8,4.6,8.3,4.6,13.4c0,6.7-2.4,12.3-7.1,16.6c-4.7,4.4-11.4,6.6-20,6.6H156.2z M171.3,241.2H187c4.2,0,7.5-1,9.8-3
		s3.4-4.9,3.4-8.6c0-3.6-1.1-6.4-3.4-8.4c-2.2-2.1-5.5-3.2-10-3.2h-15.5V241.2z M171.3,277.9h16.8c4.5,0,7.9-1.1,10.4-3.2
		c2.5-2.2,3.8-5.2,3.8-9.1c0-4-1.3-7.1-3.9-9.4c-2.6-2.3-6.1-3.4-10.5-3.4h-16.6V277.9z"/>
</g>
</svg>
